Hubballi-Regular-wire-LatinOnly-Decomp-105.ufo
<glyph name="exclam" format="1">
  <advance width="343"/>
  <unicode hex="0021"/>
  <outline>
    <contour>
      <point x="170" y="264" type="move"/>
      <point x="177" y="556" type="line"/>
    </contour>
    <contour>
      <point x="170" y="66" type="curve" smooth="yes"/>
      <point x="154" y="66"/>
      <point x="149" y="50"/>
      <point x="149" y="35" type="curve" smooth="yes"/>
      <point x="149" y="17"/>
      <point x="159" y="5"/>
      <point x="171" y="5" type="curve" smooth="yes"/>
      <point x="186" y="5"/>
      <point x="192" y="17"/>
      <point x="192" y="35" type="curve" smooth="yes"/>
      <point x="192" y="50"/>
      <point x="185" y="66"/>
    </contour>
  </outline>
</glyph>
<glyph name="numbersign" format="1">
  <advance width="626"/>
  <unicode hex="0023"/>
  <outline>
    <contour>
      <point x="505" y="519" type="move"/>
      <point x="320" y="11" type="line"/>
    </contour>
    <contour>
      <point x="295" y="519" type="move"/>
      <point x="110" y="11" type="line"/>
    </contour>
    <contour>
      <point x="559" y="384" type="move"/>
      <point x="134" y="384" type="line"/>
    </contour>
    <contour>
      <point x="486" y="174" type="move"/>
      <point x="62" y="174" type="line"/>
    </contour>
  </outline>
</glyph>
<glyph name="dollar" format="1">
  <advance width="603"/>
  <unicode hex="0024"/>
  <outline>
    <contour>
      <point x="459" y="495" type="move"/>
      <point x="402" y="515"/>
      <point x="361" y="527"/>
      <point x="278" y="527" type="curve" smooth="yes"/>
      <point x="175" y="527"/>
      <point x="114" y="473"/>
      <point x="114" y="417" type="curve" smooth="yes"/>
      <point x="114" y="365"/>
      <point x="142" y="306"/>
      <point x="303" y="279" type="curve" smooth="yes"/>
      <point x="450" y="251"/>
      <point x="500" y="197"/>
      <point x="500" y="130" type="curve" smooth="yes"/>
      <point x="500" y="63"/>
      <point x="440" y="2"/>
      <point x="302" y="2" type="curve" smooth="yes"/>
      <point x="230" y="2"/>
      <point x="162" y="16"/>
      <point x="99" y="47" type="curve"/>
      <point x="99" y="47"/>
    </contour>
    <contour>
      <point x="298" y="623" type="move"/>
      <point x="298" y="-101" type="line"/>
    </contour>
  </outline>
</glyph>
<glyph name="percent" format="1">
  <advance width="855"/>
  <unicode hex="0025"/>
  <outline>
    <contour>
      <point x="578" y="520" type="move"/>
      <point x="280" y="11" type="line"/>
    </contour>
    <contour>
      <point x="213" y="528" type="curve" smooth="yes"/>
      <point x="146" y="528"/>
      <point x="99" y="468"/>
      <point x="99" y="384" type="curve" smooth="yes"/>
      <point x="99" y="307"/>
      <point x="147" y="242"/>
      <point x="213" y="242" type="curve" smooth="yes"/>
      <point x="286" y="242"/>
      <point x="327" y="307"/>
      <point x="327" y="385" type="curve" smooth="yes"/>
      <point x="327" y="468"/>
      <point x="276" y="528"/>
    </contour>
    <contour>
      <point x="643" y="286" type="curve" smooth="yes"/>
      <point x="575" y="286"/>
      <point x="528" y="226"/>
      <point x="528" y="142" type="curve" smooth="yes"/>
      <point x="528" y="66"/>
      <point x="576" y="0"/>
      <point x="643" y="0" type="curve" smooth="yes"/>
      <point x="715" y="0"/>
      <point x="756" y="66"/>
      <point x="756" y="143" type="curve" smooth="yes"/>
      <point x="756" y="226"/>
      <point x="706" y="286"/>
    </contour>
  </outline>
</glyph>
<glyph name="ampersand" format="1">
  <advance width="666"/>
  <unicode hex="0026"/>
  <outline>
    <contour>
      <point x="546" y="278" type="move"/>
      <point x="456" y="150" type="line" smooth="yes"/>
      <point x="378" y="39"/>
      <point x="321" y="3"/>
      <point x="245" y="3" type="curve" smooth="yes"/>
      <point x="158" y="3"/>
      <point x="97" y="56"/>
      <point x="97" y="126" type="curve" smooth="yes"/>
      <point x="97" y="195"/>
      <point x="132" y="248"/>
      <point x="286" y="311" type="curve" smooth="yes"/>
      <point x="352" y="339"/>
      <point x="382" y="377"/>
      <point x="382" y="427" type="curve" smooth="yes"/>
      <point x="382" y="483"/>
      <point x="334" y="528"/>
      <point x="271" y="528" type="curve" smooth="yes"/>
      <point x="209" y="528"/>
      <point x="163" y="486"/>
      <point x="163" y="423" type="curve" smooth="yes"/>
      <point x="163" y="366"/>
      <point x="205" y="323"/>
      <point x="267" y="268" type="curve" smooth="yes"/>
      <point x="562" y="11" type="line"/>
    </contour>
  </outline>
</glyph>
<glyph name="parenright" format="1">
  <advance width="352"/>
  <unicode hex="0029"/>
  <outline>
    <contour>
      <point x="107" y="620" type="move"/>
      <point x="186" y="533"/>
      <point x="250" y="399"/>
      <point x="250" y="259" type="curve" smooth="yes"/>
      <point x="250" y="120"/>
      <point x="190" y="-7"/>
      <point x="107" y="-93" type="curve"/>
    </contour>
  </outline>
</glyph>
<glyph name="asterisk" format="1">
  <advance width="453"/>
  <unicode hex="002A"/>
  <outline>
    <contour>
      <point x="226" y="544" type="move"/>
      <point x="226" y="284" type="line"/>
    </contour>
    <contour>
      <point x="104" y="483" type="move"/>
      <point x="349" y="340" type="line"/>
    </contour>
    <contour>
      <point x="104" y="340" type="move"/>
      <point x="349" y="483" type="line"/>
    </contour>
  </outline>
</glyph>
<glyph name="plus" format="1">
  <advance width="557"/>
  <unicode hex="002B"/>
  <outline>
    <contour>
      <point x="101" y="264" type="move"/>
      <point x="455" y="264" type="line"/>
    </contour>
    <contour>
      <point x="278" y="92" type="move"/>
      <point x="278" y="435" type="line"/>
    </contour>
  </outline>
</glyph>
<glyph name="zero" format="1">
  <advance width="594"/>
  <unicode hex="0030"/>
  <outline>
    <contour>
      <point x="298" y="529" type="curve" smooth="yes"/>
      <point x="174" y="529"/>
      <point x="88" y="419"/>
      <point x="88" y="265" type="curve" smooth="yes"/>
      <point x="88" y="123"/>
      <point x="176" y="2"/>
      <point x="298" y="2" type="curve" smooth="yes"/>
      <point x="431" y="2"/>
      <point x="505" y="123"/>
      <point x="505" y="267" type="curve" smooth="yes"/>
      <point x="505" y="419"/>
      <point x="413" y="529"/>
    </contour>
  </outline>
</glyph>
<glyph name="eight" format="1">
  <advance width="586"/>
  <unicode hex="0038"/>
  <outline>
    <contour>
      <point x="294" y="286" type="curve" smooth="yes"/>
      <point x="170" y="286"/>
      <point x="100" y="229"/>
      <point x="100" y="143" type="curve" smooth="yes"/>
      <point x="100" y="67"/>
      <point x="164" y="3"/>
      <point x="294" y="3" type="curve" smooth="yes"/>
      <point x="433" y="3"/>
      <point x="486" y="67"/>
      <point x="486" y="144" type="curve" smooth="yes"/>
      <point x="486" y="229"/>
      <point x="411" y="286"/>
    </contour>
    <contour>
      <point x="294" y="528" type="curve" smooth="yes"/>
      <point x="188" y="528"/>
      <point x="127" y="481"/>
      <point x="127" y="409" type="curve" smooth="yes"/>
      <point x="127" y="341"/>
      <point x="179" y="286"/>
      <point x="294" y="286" type="curve" smooth="yes"/>
      <point x="404" y="286"/>
      <point x="459" y="341"/>
      <point x="459" y="409" type="curve" smooth="yes"/>
      <point x="459" y="481"/>
      <point x="395" y="528"/>
    </contour>
  </outline>
</glyph>
<glyph name="colon" format="1">
  <advance width="264"/>
  <unicode hex="003A"/>
  <outline>
    <contour>
      <point x="131" y="71" type="curve" smooth="yes"/>
      <point x="116" y="71"/>
      <point x="110" y="55"/>
      <point x="110" y="40" type="curve" smooth="yes"/>
      <point x="110" y="22"/>
      <point x="120" y="10"/>
      <point x="132" y="10" type="curve" smooth="yes"/>
      <point x="147" y="10"/>
      <point x="153" y="22"/>
      <point x="153" y="40" type="curve" smooth="yes"/>
      <point x="153" y="55"/>
      <point x="146" y="71"/>
    </contour>
    <contour>
      <point x="131" y="354" type="curve" smooth="yes"/>
      <point x="116" y="354"/>
      <point x="110" y="338"/>
      <point x="110" y="324" type="curve" smooth="yes"/>
      <point x="110" y="306"/>
      <point x="120" y="293"/>
      <point x="132" y="293" type="curve" smooth="yes"/>
      <point x="147" y="293"/>
      <point x="153" y="306"/>
      <point x="153" y="324" type="curve" smooth="yes"/>
      <point x="153" y="338"/>
      <point x="146" y="354"/>
    </contour>
  </outline>
</glyph>
<glyph name="semicolon" format="1">
  <advance width="242"/>
  <unicode hex="003B"/>
  <outline>
    <contour>
      <point x="116" y="75" type="move"/>
      <point x="120" y="62"/>
      <point x="122" y="43"/>
      <point x="122" y="23" type="curve" smooth="yes"/>
      <point x="122" y="-25"/>
      <point x="105" y="-73"/>
      <point x="78" y="-110" type="curve"/>
    </contour>
    <contour>
      <point x="119" y="357" type="curve" smooth="yes"/>
      <point x="103" y="357"/>
      <point x="98" y="341"/>
      <point x="98" y="327" type="curve" smooth="yes"/>
      <point x="98" y="309"/>
      <point x="107" y="296"/>
      <point x="120" y="296" type="curve" smooth="yes"/>
      <point x="134" y="296"/>
      <point x="141" y="309"/>
      <point x="141" y="327" type="curve" smooth="yes"/>
      <point x="141" y="341"/>
      <point x="133" y="357"/>
    </contour>
  </outline>
</glyph>
<glyph name="greater" format="1">
  <advance width="541"/>
  <unicode hex="003E"/>
  <outline>
    <contour>
      <point x="444" y="267" type="move"/>
      <point x="119" y="414" type="line"/>
    </contour>
    <contour>
      <point x="112" y="110" type="move"/>
      <point x="450" y="263" type="line"/>
    </contour>
  </outline>
</glyph>
<glyph name="B" format="1">
  <advance width="554"/>
  <unicode hex="0042"/>
  <outline>
    <contour>
      <point x="139" y="284" type="move"/>
      <point x="295" y="284" type="line" smooth="yes"/>
      <point x="350" y="284"/>
      <point x="399" y="265"/>
      <point x="428" y="236" type="curve" smooth="yes"/>
      <point x="455" y="209"/>
      <point x="467" y="179"/>
      <point x="467" y="144" type="curve" smooth="yes"/>
      <point x="467" y="113"/>
      <point x="456" y="81"/>
      <point x="432" y="57" type="curve" smooth="yes"/>
      <point x="404" y="30"/>
      <point x="362" y="11"/>
      <point x="292" y="11" type="curve" smooth="yes"/>
      <point x="129" y="11" type="line"/>
      <point x="129" y="520" type="line"/>
      <point x="275" y="520" type="line" smooth="yes"/>
      <point x="328" y="520"/>
      <point x="363" y="503"/>
      <point x="385" y="481" type="curve" smooth="yes"/>
      <point x="404" y="462"/>
      <point x="417" y="431"/>
      <point x="417" y="404" type="curve" smooth="yes"/>
      <point x="417" y="373"/>
      <point x="404" y="344"/>
      <point x="385" y="325" type="curve" smooth="yes"/>
      <point x="366" y="306"/>
      <point x="330" y="287"/>
      <point x="287" y="284" type="curve"/>
    </contour>
  </outline>
</glyph>
<glyph name="J" format="1">
  <advance width="408"/>
  <unicode hex="004A"/>
  <outline>
    <contour>
      <point x="75" y="22" type="move"/>
      <point x="105" y="8"/>
      <point x="137" y="2"/>
      <point x="168" y="2" type="curve" smooth="yes"/>
      <point x="250" y="2"/>
      <point x="292" y="55"/>
      <point x="292" y="160" type="curve" smooth="yes"/>
      <point x="292" y="520" type="line"/>
    </contour>
  </outline>
</glyph>
<glyph name="K" format="1">
  <advance width="585"/>
  <unicode hex="004B"/>
  <outline>
    <contour>
      <point x="129" y="520" type="move"/>
      <point x="129" y="11" type="line"/>
    </contour>
    <contour>
      <point x="259" y="303" type="move"/>
      <point x="319" y="230"/>
      <point x="445" y="77"/>
      <point x="503" y="11" type="curve"/>
    </contour>
    <contour>
      <point x="129" y="187" type="move"/>
      <point x="180" y="233"/>
      <point x="377" y="410"/>
      <point x="482" y="520" type="curve"/>
    </contour>
  </outline>
</glyph>
<glyph name="O" format="1">
  <advance width="672.0"/>
  <unicode hex="004F"/>
  <outline>
    <contour>
      <point x="338" y="530" type="curve" smooth="yes"/>
      <point x="190" y="530"/>
      <point x="90" y="420"/>
      <point x="90" y="262" type="curve" smooth="yes"/>
      <point x="90" y="117"/>
      <point x="192" y="1"/>
      <point x="338" y="1" type="curve" smooth="yes"/>
      <point x="492" y="1"/>
      <point x="582" y="117"/>
      <point x="582" y="265" type="curve" smooth="yes"/>
      <point x="582" y="420"/>
      <point x="474" y="530"/>
    </contour>
  </outline>
</glyph>
<glyph name="R" format="1">
  <advance width="568"/>
  <unicode hex="0052"/>
  <outline>
    <contour>
      <point x="146" y="220" type="move"/>
      <point x="284" y="220" type="line" smooth="yes"/>
      <point x="400" y="220"/>
      <point x="458" y="288"/>
      <point x="458" y="370" type="curve" smooth="yes"/>
      <point x="458" y="458"/>
      <point x="389" y="520"/>
      <point x="284" y="520" type="curve" smooth="yes"/>
      <point x="129" y="520" type="line"/>
      <point x="129" y="11" type="line"/>
    </contour>
    <contour>
      <point x="314" y="214" type="move"/>
      <point x="487" y="11" type="line"/>
    </contour>
  </outline>
</glyph>
<glyph name="S" format="1">
  <advance width="551"/>
  <unicode hex="0053"/>
  <outline>
    <contour>
      <point x="413" y="495" type="move"/>
      <point x="363" y="515"/>
      <point x="328" y="527"/>
      <point x="255" y="527" type="curve" smooth="yes"/>
      <point x="166" y="527"/>
      <point x="112" y="473"/>
      <point x="112" y="417" type="curve" smooth="yes"/>
      <point x="112" y="365"/>
      <point x="137" y="306"/>
      <point x="277" y="279" type="curve" smooth="yes"/>
      <point x="405" y="250"/>
      <point x="448" y="197"/>
      <point x="448" y="130" type="curve" smooth="yes"/>
      <point x="448" y="62"/>
      <point x="396" y="2"/>
      <point x="276" y="2" type="curve" smooth="yes"/>
      <point x="213" y="2"/>
      <point x="153" y="16"/>
      <point x="99" y="47" type="curve"/>
    </contour>
  </outline>
</glyph>
<glyph name="V" format="1">
  <advance width="614"/>
  <unicode hex="0056"/>
  <outline>
    <contour>
      <point x="79" y="521" type="move"/>
      <point x="121" y="391"/>
      <point x="263" y="85"/>
      <point x="305" y="7" type="curve"/>
    </contour>
    <contour>
      <point x="308" y="1" type="move"/>
      <point x="354" y="89"/>
      <point x="484" y="370"/>
      <point x="536" y="520" type="curve"/>
    </contour>
  </outline>
</glyph>
<glyph name="W" format="1">
  <advance width="942"/>
  <unicode hex="0057"/>
  <outline>
    <contour>
      <point x="96" y="519" type="move"/>
      <point x="131" y="389"/>
      <point x="236" y="86"/>
      <point x="273" y="8" type="curve"/>
    </contour>
    <contour>
      <point x="277" y="2" type="move"/>
      <point x="316" y="90"/>
      <point x="426" y="368"/>
      <point x="471" y="516" type="curve"/>
    </contour>
    <contour>
      <point x="476" y="504" type="move"/>
      <point x="516" y="376"/>
      <point x="624" y="85"/>
      <point x="662" y="7" type="curve"/>
    </contour>
    <contour>
      <point x="666" y="1" type="move"/>
      <point x="705" y="89"/>
      <point x="804" y="369"/>
      <point x="847" y="519" type="curve"/>
    </contour>
  </outline>
</glyph>
<glyph name="a" format="1">
  <advance width="473"/>
  <unicode hex="0061"/>
  <outline>
    <contour>
      <point x="128" y="357" type="move"/>
      <point x="150" y="364"/>
      <point x="191" y="374"/>
      <point x="226" y="374" type="curve" smooth="yes"/>
      <point x="322" y="374"/>
      <point x="366" y="315"/>
      <point x="366" y="230" type="curve" smooth="yes"/>
      <point x="366" y="134" type="line" smooth="yes"/>
      <point x="366" y="76"/>
      <point x="380" y="43"/>
      <point x="405" y="15" type="curve"/>
    </contour>
    <contour>
      <point x="365" y="218" type="move"/>
      <point x="330" y="219"/>
      <point x="298" y="221"/>
      <point x="268" y="221" type="curve" smooth="yes"/>
      <point x="191" y="221"/>
      <point x="140" y="202"/>
      <point x="108" y="171" type="curve" smooth="yes"/>
      <point x="86" y="150"/>
      <point x="79" y="126"/>
      <point x="79" y="99" type="curve" smooth="yes"/>
      <point x="79" y="62"/>
      <point x="106" y="14"/>
      <point x="181" y="14" type="curve" smooth="yes"/>
      <point x="258" y="14"/>
      <point x="316" y="46"/>
      <point x="366" y="114" type="curve"/>
    </contour>
  </outline>
</glyph>
<glyph name="b" format="1">
  <advance width="530"/>
  <unicode hex="0062"/>
  <outline>
    <contour>
      <point x="116" y="11" type="move"/>
      <point x="116" y="547" type="line"/>
    </contour>
    <contour>
      <point x="116" y="51" type="move"/>
      <point x="166" y="24"/>
      <point x="219" y="10"/>
      <point x="281" y="10" type="curve" smooth="yes"/>
      <point x="382" y="10"/>
      <point x="454" y="80"/>
      <point x="454" y="189" type="curve" smooth="yes"/>
      <point x="454" y="297"/>
      <point x="383" y="369"/>
      <point x="295" y="369" type="curve" smooth="yes"/>
      <point x="230" y="369"/>
      <point x="164" y="323"/>
      <point x="117" y="248" type="curve" smooth="yes"/>
      <point x="85" y="196"/>
    </contour>
  </outline>
</glyph>
<glyph name="f" format="1">
  <advance width="334"/>
  <unicode hex="0066"/>
  <outline>
    <contour>
      <point x="284" y="573" type="move"/>
      <point x="174" y="567"/>
      <point x="141" y="519"/>
      <point x="141" y="445" type="curve" smooth="yes"/>
      <point x="141" y="10" type="line"/>
    </contour>
    <contour>
      <point x="48" y="369" type="move"/>
      <point x="286" y="369" type="line"/>
    </contour>
  </outline>
</glyph>
<glyph name="m" format="1">
  <advance width="790"/>
  <unicode hex="006D"/>
  <outline>
    <contour>
      <point x="116" y="14" type="move"/>
      <point x="116" y="374" type="line"/>
    </contour>
    <contour>
      <point x="401" y="14" type="move"/>
      <point x="401" y="235" type="line" smooth="yes"/>
      <point x="401" y="343"/>
      <point x="351" y="374"/>
      <point x="287" y="374" type="curve" smooth="yes"/>
      <point x="227" y="374"/>
      <point x="164" y="332"/>
      <point x="118" y="280" type="curve"/>
    </contour>
    <contour>
      <point x="685" y="14" type="move"/>
      <point x="685" y="235" type="line" smooth="yes"/>
      <point x="685" y="343"/>
      <point x="634" y="374"/>
      <point x="570" y="374" type="curve" smooth="yes"/>
      <point x="510" y="374"/>
      <point x="448" y="332"/>
      <point x="401" y="280" type="curve"/>
    </contour>
  </outline>
</glyph>
<glyph name="s" format="1">
  <advance width="473"/>
  <unicode hex="0073"/>
  <outline>
    <contour>
      <point x="353" y="361" type="move"/>
      <point x="322" y="369"/>
      <point x="282" y="377"/>
      <point x="238" y="377" type="curve" smooth="yes"/>
      <point x="141" y="377"/>
      <point x="104" y="332"/>
      <point x="104" y="289" type="curve" smooth="yes"/>
      <point x="104" y="250"/>
      <point x="135" y="215"/>
      <point x="230" y="206" type="curve" smooth="yes"/>
      <point x="272" y="201" type="line" smooth="yes"/>
      <point x="354" y="193"/>
      <point x="387" y="151"/>
      <point x="387" y="105" type="curve" smooth="yes"/>
      <point x="387" y="56"/>
      <point x="349" y="10"/>
      <point x="245" y="10" type="curve" smooth="yes"/>
      <point x="195" y="10"/>
      <point x="144" y="20"/>
      <point x="98" y="40" type="curve"/>
    </contour>
  </outline>
</glyph>
<glyph name="u" format="1">
  <advance width="522"/>
  <unicode hex="0075"/>
  <outline>
    <contour>
      <point x="406" y="374" type="move"/>
      <point x="406" y="14" type="line"/>
    </contour>
    <contour>
      <point x="105" y="374" type="move"/>
      <point x="105" y="164" type="line" smooth="yes"/>
      <point x="105" y="53"/>
      <point x="155" y="14"/>
      <point x="223" y="14" type="curve" smooth="yes"/>
      <point x="289" y="14"/>
      <point x="358" y="66"/>
      <point x="402" y="127" type="curve"/>
    </contour>
  </outline>
</glyph>
<glyph name="v" format="1">
  <advance width="474"/>
  <unicode hex="0076"/>
  <outline>
    <contour>
      <point x="66" y="374" type="move"/>
      <point x="128" y="213"/>
      <point x="185" y="101"/>
      <point x="240" y="10" type="curve"/>
      <point x="244" y="10" type="line"/>
      <point x="298" y="101"/>
      <point x="366" y="258"/>
      <point x="408" y="374" type="curve"/>
    </contour>
  </outline>
</glyph>
<glyph name="x" format="1">
  <advance width="469"/>
  <unicode hex="0078"/>
  <outline>
    <contour>
      <point x="66" y="14" type="move"/>
      <point x="134" y="92"/>
      <point x="300" y="271"/>
      <point x="382" y="374" type="curve"/>
    </contour>
    <contour>
      <point x="80" y="374" type="move"/>
      <point x="162" y="277"/>
      <point x="309" y="123"/>
      <point x="403" y="14" type="curve"/>
    </contour>
  </outline>
</glyph>
<glyph name="braceleft" format="1">
  <advance width="433"/>
  <unicode hex="007B"/>
  <outline>
    <contour>
      <point x="326" y="620" type="move"/>
      <point x="305" y="620" type="line" smooth="yes"/>
      <point x="202" y="620"/>
      <point x="139" y="566"/>
      <point x="139" y="507" type="curve" smooth="yes"/>
      <point x="139" y="438"/>
      <point x="209" y="402"/>
      <point x="209" y="341" type="curve" smooth="yes"/>
      <point x="209" y="303"/>
      <point x="173" y="277"/>
      <point x="102" y="266" type="curve"/>
      <point x="102" y="260" type="line"/>
      <point x="173" y="249"/>
      <point x="209" y="223"/>
      <point x="209" y="185" type="curve" smooth="yes"/>
      <point x="209" y="124"/>
      <point x="139" y="88"/>
      <point x="139" y="19" type="curve" smooth="yes"/>
      <point x="139" y="-40"/>
      <point x="202" y="-94"/>
      <point x="305" y="-94" type="curve" smooth="yes"/>
      <point x="326" y="-94" type="line"/>
    </contour>
  </outline>
</glyph>
<glyph name="braceright" format="1">
  <advance width="433"/>
  <unicode hex="007D"/>
  <outline>
    <contour>
      <point x="107" y="620" type="move"/>
      <point x="128" y="620" type="line" smooth="yes"/>
      <point x="231" y="620"/>
      <point x="294" y="566"/>
      <point x="294" y="507" type="curve" smooth="yes"/>
      <point x="294" y="438"/>
      <point x="224" y="402"/>
      <point x="224" y="341" type="curve" smooth="yes"/>
      <point x="224" y="303"/>
      <point x="259" y="277"/>
      <point x="331" y="266" type="curve"/>
      <point x="331" y="260" type="line"/>
      <point x="259" y="249"/>
      <point x="224" y="223"/>
      <point x="224" y="185" type="curve" smooth="yes"/>
      <point x="224" y="124"/>
      <point x="294" y="88"/>
      <point x="294" y="19" type="curve" smooth="yes"/>
      <point x="294" y="-40"/>
      <point x="231" y="-94"/>
      <point x="128" y="-94" type="curve" smooth="yes"/>
      <point x="107" y="-94" type="line"/>
    </contour>
  </outline>
</glyph>
<glyph name="sterling" format="1">
  <advance width="479"/>
  <unicode hex="00A3"/>
  <outline>
    <contour>
      <point x="69" y="20" type="move"/>
      <point x="150" y="94" type="line" smooth="yes"/>
      <point x="181" y="121"/>
      <point x="203" y="156"/>
      <point x="203" y="186" type="curve" smooth="yes"/>
      <point x="203" y="213"/>
      <point x="187" y="248"/>
      <point x="162" y="277" type="curve" smooth="yes"/>
      <point x="122" y="325"/>
      <point x="97" y="360"/>
      <point x="97" y="411" type="curve" smooth="yes"/>
      <point x="97" y="471"/>
      <point x="142" y="529"/>
      <point x="225" y="529" type="curve" smooth="yes"/>
      <point x="273" y="529"/>
      <point x="317" y="515"/>
      <point x="354" y="492" type="curve"/>
    </contour>
    <contour>
      <point x="389" y="11" type="move"/>
      <point x="59" y="11" type="line"/>
    </contour>
    <contour>
      <point x="65" y="247" type="move"/>
      <point x="379" y="247" type="line"/>
    </contour>
  </outline>
</glyph>
<glyph name="yen" format="1">
  <advance width="588.0"/>
  <unicode hex="00A5"/>
  <outline>
    <contour>
      <point x="302" y="265" type="move"/>
      <point x="302" y="11" type="line"/>
    </contour>
    <contour>
      <point x="98" y="520" type="move"/>
      <point x="149" y="447"/>
      <point x="259" y="321"/>
      <point x="299" y="282" type="curve"/>
    </contour>
    <contour>
      <point x="302" y="271" type="move"/>
      <point x="355" y="324"/>
      <point x="452" y="448"/>
      <point x="503" y="520" type="curve"/>
    </contour>
    <contour>
      <point x="119" y="267" type="move"/>
      <point x="484" y="267" type="line"/>
    </contour>
    <contour>
      <point x="119" y="118" type="move"/>
      <point x="484" y="118" type="line"/>
    </contour>
  </outline>
</glyph>
<glyph name="section" format="1">
  <advance width="551"/>
  <unicode hex="00A7"/>
  <outline>
    <contour>
      <point x="413" y="504" type="move"/>
      <point x="363" y="520"/>
      <point x="328" y="529"/>
      <point x="255" y="529" type="curve" smooth="yes"/>
      <point x="166" y="529"/>
      <point x="112" y="485"/>
      <point x="112" y="439" type="curve" smooth="yes"/>
      <point x="112" y="396"/>
      <point x="137" y="347"/>
      <point x="277" y="326" type="curve" smooth="yes"/>
      <point x="405" y="300"/>
      <point x="448" y="256"/>
      <point x="448" y="201" type="curve" smooth="yes"/>
      <point x="448" y="145"/>
      <point x="396" y="100"/>
      <point x="276" y="100" type="curve" smooth="yes"/>
    </contour>
    <contour>
      <point x="245" y="327" type="move" smooth="yes"/>
      <point x="155" y="327"/>
      <point x="102" y="286"/>
      <point x="102" y="222" type="curve" smooth="yes"/>
      <point x="102" y="175"/>
      <point x="126" y="124"/>
      <point x="267" y="100" type="curve" smooth="yes"/>
      <point x="395" y="78"/>
      <point x="438" y="47"/>
      <point x="438" y="-9" type="curve" smooth="yes"/>
      <point x="438" y="-65"/>
      <point x="385" y="-115"/>
      <point x="266" y="-115" type="curve" smooth="yes"/>
      <point x="203" y="-115"/>
      <point x="143" y="-104"/>
      <point x="88" y="-79" type="curve"/>
    </contour>
  </outline>
</glyph>
<glyph name="guillemotleft" format="1">
  <advance width="460"/>
  <unicode hex="00AB"/>
  <outline>
    <contour>
      <point x="253" y="189" type="move"/>
      <point x="370" y="31" type="line"/>
    </contour>
    <contour>
      <point x="370" y="352" type="move"/>
      <point x="253" y="194" type="line"/>
    </contour>
    <contour>
      <point x="75" y="189" type="move"/>
      <point x="191" y="31" type="line"/>
    </contour>
    <contour>
      <point x="191" y="352" type="move"/>
      <point x="75" y="194" type="line"/>
    </contour>
  </outline>
</glyph>
<glyph name="degree" format="1">
  <advance width="462.0"/>
  <unicode hex="00B0"/>
  <outline>
    <contour>
      <point x="230" y="520" type="curve" smooth="yes"/>
      <point x="142" y="520"/>
      <point x="84" y="453"/>
      <point x="84" y="373" type="curve" smooth="yes"/>
      <point x="84" y="295"/>
      <point x="144" y="232"/>
      <point x="231" y="232" type="curve" smooth="yes"/>
      <point x="317" y="232"/>
      <point x="378" y="294"/>
      <point x="378" y="373" type="curve" smooth="yes"/>
      <point x="378" y="456"/>
      <point x="317" y="520"/>
    </contour>
  </outline>
</glyph>
<glyph name="paragraph" format="1">
  <advance width="584"/>
  <unicode hex="00B6"/>
  <outline>
    <contour>
      <point x="455" y="11" type="move"/>
      <point x="455" y="520" type="line"/>
      <point x="257" y="520" type="line" smooth="yes"/>
      <point x="151" y="520"/>
      <point x="81" y="453"/>
      <point x="81" y="358" type="curve" smooth="yes"/>
      <point x="81" y="269"/>
      <point x="139" y="196"/>
      <point x="257" y="196" type="curve" smooth="yes"/>
      <point x="316" y="196" type="line"/>
    </contour>
    <contour>
      <point x="316" y="11" type="move"/>
      <point x="316" y="518" type="line"/>
    </contour>
  </outline>
</glyph>
<glyph name="periodcentered" format="1">
  <advance width="236"/>
  <unicode hex="00B7"/>
  <outline>
    <contour>
      <point x="119" y="248" type="curve" smooth="yes"/>
      <point x="103" y="248"/>
      <point x="98" y="233"/>
      <point x="98" y="218" type="curve" smooth="yes"/>
      <point x="98" y="200"/>
      <point x="107" y="188"/>
      <point x="120" y="188" type="curve" smooth="yes"/>
      <point x="134" y="188"/>
      <point x="141" y="200"/>
      <point x="141" y="218" type="curve" smooth="yes"/>
      <point x="141" y="233"/>
      <point x="133" y="248"/>
    </contour>
  </outline>
</glyph>
<glyph name="onequarter" format="1">
  <advance width="750"/>
  <unicode hex="00BC"/>
  <outline>
    <contour>
      <point x="517" y="520" type="move"/>
      <point x="219" y="11" type="line"/>
    </contour>
    <contour>
      <point x="583" y="285" type="move"/>
      <point x="583" y="12" type="line"/>
    </contour>
    <contour>
      <point x="579" y="279" type="move"/>
      <point x="417" y="90" type="line"/>
    </contour>
    <contour>
      <point x="422" y="90" type="move"/>
      <point x="648" y="90" type="line"/>
    </contour>
    <contour>
      <point x="212" y="527" type="move"/>
      <point x="212" y="256" type="line"/>
    </contour>
    <contour>
      <point x="212" y="530" type="move"/>
      <point x="126" y="484" type="line"/>
    </contour>
  </outline>
</glyph>
<glyph name="Agrave" format="1">
  <advance width="609.0"/>
  <unicode hex="00C0"/>
  <outline>
    <contour>
      <point x="295" y="524" type="move"/>
      <point x="224" y="363"/>
      <point x="124" y="138"/>
      <point x="77" y="5" type="curve"/>
    </contour>
    <contour>
      <point x="301" y="524" type="move"/>
      <point x="377" y="362"/>
      <point x="480" y="135"/>
      <point x="530" y="5" type="curve"/>
    </contour>
    <contour>
      <point x="149" y="158" type="move"/>
      <point x="455" y="158" type="line"/>
    </contour>
    <contour>
      <point x="180" y="744" type="move"/>
      <point x="217" y="723"/>
      <point x="273" y="681"/>
      <point x="301" y="659" type="curve"/>
    </contour>
  </outline>
</glyph>
<glyph name="Acircumflex" format="1">
  <advance width="609.0"/>
  <unicode hex="00C2"/>
  <outline>
    <contour>
      <point x="295" y="525" type="move"/>
      <point x="224" y="364"/>
      <point x="124" y="138"/>
      <point x="77" y="6" type="curve"/>
    </contour>
    <contour>
      <point x="301" y="525" type="move"/>
      <point x="377" y="363"/>
      <point x="480" y="135"/>
      <point x="530" y="6" type="curve"/>
    </contour>
    <contour>
      <point x="149" y="158" type="move"/>
      <point x="455" y="158" type="line"/>
    </contour>
    <contour>
      <point x="289" y="720" type="move"/>
      <point x="254" y="695"/>
      <point x="217" y="670"/>
      <point x="188" y="648" type="curve"/>
    </contour>
    <contour>
      <point x="397" y="648" type="move"/>
      <point x="368" y="670"/>
      <point x="332" y="695"/>
      <point x="296" y="720" type="curve"/>
    </contour>
  </outline>
</glyph>
<glyph name="Adieresis" format="1">
  <advance width="609.0"/>
  <unicode hex="00C4"/>
  <outline>
    <contour>
      <point x="295" y="525" type="move"/>
      <point x="224" y="364"/>
      <point x="124" y="139"/>
      <point x="77" y="6" type="curve"/>
    </contour>
    <contour>
      <point x="301" y="525" type="move"/>
      <point x="377" y="363"/>
      <point x="480" y="136"/>
      <point x="530" y="6" type="curve"/>
    </contour>
    <contour>
      <point x="149" y="159" type="move"/>
      <point x="455" y="159" type="line"/>
    </contour>
    <contour>
      <point x="197" y="703" type="curve" smooth="yes"/>
      <point x="186" y="703"/>
      <point x="179" y="689"/>
      <point x="179" y="675" type="curve" smooth="yes"/>
      <point x="179" y="661"/>
      <point x="186" y="648"/>
      <point x="197" y="648" type="curve" smooth="yes"/>
      <point x="208" y="648"/>
      <point x="214" y="661"/>
      <point x="214" y="675" type="curve" smooth="yes"/>
      <point x="214" y="689"/>
      <point x="208" y="703"/>
    </contour>
    <contour>
      <point x="400" y="703" type="curve" smooth="yes"/>
      <point x="389" y="703"/>
      <point x="382" y="689"/>
      <point x="382" y="675" type="curve" smooth="yes"/>
      <point x="382" y="661"/>
      <point x="389" y="648"/>
      <point x="400" y="648" type="curve" smooth="yes"/>
      <point x="411" y="648"/>
      <point x="417" y="661"/>
      <point x="417" y="675" type="curve" smooth="yes"/>
      <point x="417" y="689"/>
      <point x="411" y="703"/>
    </contour>
  </outline>
</glyph>
<glyph name="Ccedilla" format="1">
  <advance width="594"/>
  <unicode hex="00C7"/>
  <outline>
    <contour>
      <point x="494" y="505" type="move"/>
      <point x="459" y="524"/>
      <point x="406" y="536"/>
      <point x="351" y="536" type="curve" smooth="yes"/>
      <point x="211" y="536"/>
      <point x="90" y="428"/>
      <point x="90" y="268" type="curve" smooth="yes"/>
      <point x="90" y="121"/>
      <point x="188" y="7"/>
      <point x="357" y="7" type="curve" smooth="yes"/>
      <point x="412" y="7"/>
      <point x="460" y="19"/>
      <point x="499" y="39" type="curve"/>
    </contour>
    <contour>
      <point x="350" y="-137" type="move"/>
      <point x="321" y="-164"/>
      <point x="268" y="-217"/>
      <point x="244" y="-242" type="curve"/>
    </contour>
  </outline>
</glyph>
<glyph name="Egrave" format="1">
  <advance width="511"/>
  <unicode hex="00C8"/>
  <outline>
    <contour>
      <point x="129" y="515" type="move"/>
      <point x="129" y="5" type="line"/>
    </contour>
    <contour>
      <point x="138" y="5" type="move"/>
      <point x="422" y="5" type="line"/>
    </contour>
    <contour>
      <point x="138" y="515" type="move"/>
      <point x="420" y="515" type="line"/>
    </contour>
    <contour>
      <point x="138" y="279" type="move"/>
      <point x="375" y="279" type="line"/>
    </contour>
    <contour>
      <point x="164" y="744" type="move"/>
      <point x="202" y="723"/>
      <point x="257" y="681"/>
      <point x="286" y="659" type="curve"/>
    </contour>
  </outline>
</glyph>
<glyph name="Ecircumflex" format="1">
  <advance width="511"/>
  <unicode hex="00CA"/>
  <outline>
    <contour>
      <point x="129" y="515" type="move"/>
      <point x="129" y="5" type="line"/>
    </contour>
    <contour>
      <point x="138" y="5" type="move"/>
      <point x="422" y="5" type="line"/>
    </contour>
    <contour>
      <point x="138" y="515" type="move"/>
      <point x="420" y="515" type="line"/>
    </contour>
    <contour>
      <point x="138" y="280" type="move"/>
      <point x="375" y="280" type="line"/>
    </contour>
    <contour>
      <point x="261" y="741" type="move"/>
      <point x="227" y="715"/>
      <point x="190" y="690"/>
      <point x="161" y="668" type="curve"/>
    </contour>
    <contour>
      <point x="370" y="668" type="move"/>
      <point x="340" y="690"/>
      <point x="305" y="715"/>
      <point x="269" y="741" type="curve"/>
    </contour>
  </outline>
</glyph>
<glyph name="Edieresis" format="1">
  <advance width="511"/>
  <unicode hex="00CB"/>
  <outline>
    <contour>
      <point x="129" y="515" type="move"/>
      <point x="129" y="6" type="line"/>
    </contour>
    <contour>
      <point x="138" y="6" type="move"/>
      <point x="422" y="6" type="line"/>
    </contour>
    <contour>
      <point x="138" y="515" type="move"/>
      <point x="420" y="515" type="line"/>
    </contour>
    <contour>
      <point x="138" y="280" type="move"/>
      <point x="375" y="280" type="line"/>
    </contour>
    <contour>
      <point x="167" y="723" type="curve" smooth="yes"/>
      <point x="155" y="723"/>
      <point x="148" y="709"/>
      <point x="148" y="696" type="curve" smooth="yes"/>
      <point x="148" y="681"/>
      <point x="155" y="668"/>
      <point x="167" y="668" type="curve" smooth="yes"/>
      <point x="177" y="668"/>
      <point x="184" y="681"/>
      <point x="184" y="696" type="curve" smooth="yes"/>
      <point x="184" y="709"/>
      <point x="177" y="723"/>
    </contour>
    <contour>
      <point x="370" y="723" type="curve" smooth="yes"/>
      <point x="358" y="723"/>
      <point x="352" y="709"/>
      <point x="352" y="696" type="curve" smooth="yes"/>
      <point x="352" y="681"/>
      <point x="358" y="668"/>
      <point x="370" y="668" type="curve" smooth="yes"/>
      <point x="380" y="668"/>
      <point x="386" y="681"/>
      <point x="386" y="696" type="curve" smooth="yes"/>
      <point x="386" y="709"/>
      <point x="380" y="723"/>
    </contour>
  </outline>
</glyph>
<glyph name="Igrave" format="1">
  <advance width="269"/>
  <unicode hex="00CC"/>
  <outline>
    <contour>
      <point x="134" y="515" type="move"/>
      <point x="134" y="5" type="line"/>
    </contour>
    <contour>
      <point x="18" y="744" type="move"/>
      <point x="56" y="723"/>
      <point x="111" y="681"/>
      <point x="140" y="659" type="curve"/>
    </contour>
  </outline>
</glyph>
<glyph name="Iacute" format="1">
  <advance width="269"/>
  <unicode hex="00CD"/>
  <outline>
    <contour>
      <point x="134" y="515" type="move"/>
      <point x="134" y="5" type="line"/>
    </contour>
    <contour>
      <point x="255" y="743" type="move"/>
      <point x="207" y="714"/>
      <point x="156" y="682"/>
      <point x="126" y="660" type="curve"/>
    </contour>
  </outline>
</glyph>
<glyph name="Idieresis" format="1">
  <advance width="269"/>
  <unicode hex="00CF"/>
  <outline>
    <contour>
      <point x="134" y="515" type="move"/>
      <point x="134" y="6" type="line"/>
    </contour>
    <contour>
      <point x="37" y="723" type="curve" smooth="yes"/>
      <point x="25" y="723"/>
      <point x="18" y="709"/>
      <point x="18" y="696" type="curve" smooth="yes"/>
      <point x="18" y="681"/>
      <point x="25" y="668"/>
      <point x="37" y="668" type="curve" smooth="yes"/>
      <point x="47" y="668"/>
      <point x="54" y="681"/>
      <point x="54" y="696" type="curve" smooth="yes"/>
      <point x="54" y="709"/>
      <point x="47" y="723"/>
    </contour>
    <contour>
      <point x="239" y="723" type="curve" smooth="yes"/>
      <point x="228" y="723"/>
      <point x="222" y="709"/>
      <point x="222" y="696" type="curve" smooth="yes"/>
      <point x="222" y="681"/>
      <point x="228" y="668"/>
      <point x="239" y="668" type="curve" smooth="yes"/>
      <point x="250" y="668"/>
      <point x="256" y="681"/>
      <point x="256" y="696" type="curve" smooth="yes"/>
      <point x="256" y="709"/>
      <point x="250" y="723"/>
    </contour>
  </outline>
</glyph>
<glyph name="Oacute" format="1">
  <advance width="672.0"/>
  <unicode hex="00D3"/>
  <outline>
    <contour>
      <point x="338" y="524" type="curve" smooth="yes"/>
      <point x="190" y="524"/>
      <point x="90" y="415"/>
      <point x="90" y="257" type="curve" smooth="yes"/>
      <point x="90" y="112"/>
      <point x="192" y="-4"/>
      <point x="338" y="-4" type="curve" smooth="yes"/>
      <point x="492" y="-4"/>
      <point x="582" y="112"/>
      <point x="582" y="260" type="curve" smooth="yes"/>
      <point x="582" y="415"/>
      <point x="474" y="524"/>
    </contour>
    <contour>
      <point x="456" y="743" type="move"/>
      <point x="407" y="714"/>
      <point x="357" y="682"/>
      <point x="327" y="660" type="curve"/>
    </contour>
  </outline>
</glyph>
<glyph name="Ocircumflex" format="1">
  <advance width="672.0"/>
  <unicode hex="00D4"/>
  <outline>
    <contour>
      <point x="338" y="525" type="curve" smooth="yes"/>
      <point x="190" y="525"/>
      <point x="90" y="415"/>
      <point x="90" y="257" type="curve" smooth="yes"/>
      <point x="90" y="112"/>
      <point x="192" y="-3"/>
      <point x="338" y="-3" type="curve" smooth="yes"/>
      <point x="492" y="-3"/>
      <point x="582" y="112"/>
      <point x="582" y="260" type="curve" smooth="yes"/>
      <point x="582" y="415"/>
      <point x="474" y="525"/>
    </contour>
    <contour>
      <point x="332" y="730" type="move"/>
      <point x="297" y="705"/>
      <point x="260" y="680"/>
      <point x="231" y="658" type="curve"/>
    </contour>
    <contour>
      <point x="440" y="658" type="move"/>
      <point x="411" y="680"/>
      <point x="375" y="705"/>
      <point x="339" y="730" type="curve"/>
    </contour>
  </outline>
</glyph>
<glyph name="Otilde" format="1">
  <advance width="672.0"/>
  <unicode hex="00D5"/>
  <outline>
    <contour>
      <point x="338" y="525" type="curve" smooth="yes"/>
      <point x="190" y="525"/>
      <point x="90" y="416"/>
      <point x="90" y="257" type="curve" smooth="yes"/>
      <point x="90" y="112"/>
      <point x="192" y="-3"/>
      <point x="338" y="-3" type="curve" smooth="yes"/>
      <point x="492" y="-3"/>
      <point x="582" y="112"/>
      <point x="582" y="260" type="curve" smooth="yes"/>
      <point x="582" y="416"/>
      <point x="474" y="525"/>
    </contour>
    <contour>
      <point x="205" y="673" type="move"/>
      <point x="229" y="703"/>
      <point x="252" y="722"/>
      <point x="276" y="722" type="curve" smooth="yes"/>
      <point x="298" y="722"/>
      <point x="317" y="710"/>
      <point x="338" y="694" type="curve" smooth="yes"/>
      <point x="359" y="678"/>
      <point x="378" y="667"/>
      <point x="399" y="667" type="curve" smooth="yes"/>
      <point x="428" y="667"/>
      <point x="450" y="686"/>
      <point x="478" y="721" type="curve"/>
    </contour>
  </outline>
</glyph>
<glyph name="Odieresis" format="1">
  <advance width="672.0"/>
  <unicode hex="00D6"/>
  <outline>
    <contour>
      <point x="338" y="525" type="curve" smooth="yes"/>
      <point x="190" y="525"/>
      <point x="90" y="416"/>
      <point x="90" y="257" type="curve" smooth="yes"/>
      <point x="90" y="112"/>
      <point x="192" y="-3"/>
      <point x="338" y="-3" type="curve" smooth="yes"/>
      <point x="492" y="-3"/>
      <point x="582" y="112"/>
      <point x="582" y="260" type="curve" smooth="yes"/>
      <point x="582" y="416"/>
      <point x="474" y="525"/>
    </contour>
    <contour>
      <point x="233" y="723" type="curve" smooth="yes"/>
      <point x="222" y="723"/>
      <point x="214" y="710"/>
      <point x="214" y="696" type="curve" smooth="yes"/>
      <point x="214" y="681"/>
      <point x="222" y="669"/>
      <point x="233" y="669" type="curve" smooth="yes"/>
      <point x="244" y="669"/>
      <point x="250" y="681"/>
      <point x="250" y="696" type="curve" smooth="yes"/>
      <point x="250" y="710"/>
      <point x="244" y="723"/>
    </contour>
    <contour>
      <point x="436" y="723" type="curve" smooth="yes"/>
      <point x="424" y="723"/>
      <point x="418" y="710"/>
      <point x="418" y="696" type="curve" smooth="yes"/>
      <point x="418" y="681"/>
      <point x="424" y="669"/>
      <point x="436" y="669" type="curve" smooth="yes"/>
      <point x="446" y="669"/>
      <point x="453" y="681"/>
      <point x="453" y="696" type="curve" smooth="yes"/>
      <point x="453" y="710"/>
      <point x="446" y="723"/>
    </contour>
  </outline>
</glyph>
<glyph name="Ucircumflex" format="1">
  <advance width="647"/>
  <unicode hex="00DB"/>
  <outline>
    <contour>
      <point x="117" y="516" type="move"/>
      <point x="117" y="205" type="line" smooth="yes"/>
      <point x="117" y="72"/>
      <point x="201" y="-3"/>
      <point x="321" y="-3" type="curve" smooth="yes"/>
      <point x="455" y="-3"/>
      <point x="530" y="72"/>
      <point x="530" y="208" type="curve" smooth="yes"/>
      <point x="530" y="516" type="line"/>
    </contour>
    <contour>
      <point x="312" y="710" type="move"/>
      <point x="277" y="685"/>
      <point x="240" y="660"/>
      <point x="211" y="638" type="curve"/>
    </contour>
    <contour>
      <point x="420" y="638" type="move"/>
      <point x="391" y="660"/>
      <point x="355" y="685"/>
      <point x="319" y="710" type="curve"/>
    </contour>
  </outline>
</glyph>
<glyph name="Udieresis" format="1">
  <advance width="647"/>
  <unicode hex="00DC"/>
  <outline>
    <contour>
      <point x="117" y="516" type="move"/>
      <point x="117" y="205" type="line" smooth="yes"/>
      <point x="117" y="72"/>
      <point x="201" y="-3"/>
      <point x="321" y="-3" type="curve" smooth="yes"/>
      <point x="455" y="-3"/>
      <point x="530" y="72"/>
      <point x="530" y="209" type="curve" smooth="yes"/>
      <point x="530" y="516" type="line"/>
    </contour>
    <contour>
      <point x="221" y="693" type="curve" smooth="yes"/>
      <point x="209" y="693"/>
      <point x="202" y="679"/>
      <point x="202" y="665" type="curve" smooth="yes"/>
      <point x="202" y="651"/>
      <point x="209" y="638"/>
      <point x="221" y="638" type="curve" smooth="yes"/>
      <point x="231" y="638"/>
      <point x="237" y="651"/>
      <point x="237" y="665" type="curve" smooth="yes"/>
      <point x="237" y="679"/>
      <point x="231" y="693"/>
    </contour>
    <contour>
      <point x="423" y="693" type="curve" smooth="yes"/>
      <point x="412" y="693"/>
      <point x="405" y="679"/>
      <point x="405" y="665" type="curve" smooth="yes"/>
      <point x="405" y="651"/>
      <point x="412" y="638"/>
      <point x="423" y="638" type="curve" smooth="yes"/>
      <point x="434" y="638"/>
      <point x="440" y="651"/>
      <point x="440" y="665" type="curve" smooth="yes"/>
      <point x="440" y="679"/>
      <point x="434" y="693"/>
    </contour>
  </outline>
</glyph>
<glyph name="Yacute" format="1">
  <advance width="588.0"/>
  <unicode hex="00DD"/>
  <outline>
    <contour>
      <point x="296" y="183" type="move"/>
      <point x="296" y="6" type="line"/>
    </contour>
    <contour>
      <point x="78" y="515" type="move"/>
      <point x="122" y="442"/>
      <point x="248" y="255"/>
      <point x="293" y="195" type="curve"/>
    </contour>
    <contour>
      <point x="296" y="189" type="move"/>
      <point x="348" y="258"/>
      <point x="467" y="443"/>
      <point x="510" y="515" type="curve"/>
    </contour>
    <contour>
      <point x="426" y="712" type="move"/>
      <point x="378" y="683"/>
      <point x="328" y="651"/>
      <point x="297" y="629" type="curve"/>
    </contour>
  </outline>
</glyph>
<glyph name="aacute" format="1">
  <advance width="473"/>
  <unicode hex="00E1"/>
  <outline>
    <contour>
      <point x="128" y="351" type="move"/>
      <point x="150" y="358"/>
      <point x="191" y="368"/>
      <point x="226" y="368" type="curve" smooth="yes"/>
      <point x="322" y="368"/>
      <point x="366" y="309"/>
      <point x="366" y="224" type="curve" smooth="yes"/>
      <point x="366" y="128" type="line" smooth="yes"/>
      <point x="366" y="71"/>
      <point x="380" y="37"/>
      <point x="405" y="10" type="curve"/>
    </contour>
    <contour>
      <point x="365" y="212" type="move"/>
      <point x="330" y="213"/>
      <point x="298" y="216"/>
      <point x="268" y="216" type="curve" smooth="yes"/>
      <point x="191" y="216"/>
      <point x="140" y="197"/>
      <point x="108" y="165" type="curve" smooth="yes"/>
      <point x="86" y="144"/>
      <point x="79" y="120"/>
      <point x="79" y="94" type="curve" smooth="yes"/>
      <point x="79" y="56"/>
      <point x="106" y="9"/>
      <point x="181" y="9" type="curve" smooth="yes"/>
      <point x="258" y="9"/>
      <point x="316" y="40"/>
      <point x="366" y="108" type="curve"/>
    </contour>
    <contour>
      <point x="311" y="611" type="move"/>
      <point x="281" y="579"/>
      <point x="253" y="545"/>
      <point x="226" y="513" type="curve"/>
    </contour>
  </outline>
</glyph>
<glyph name="adieresis" format="1">
  <advance width="473"/>
  <unicode hex="00E4"/>
  <outline>
    <contour>
      <point x="128" y="352" type="move"/>
      <point x="150" y="359"/>
      <point x="191" y="369"/>
      <point x="226" y="369" type="curve" smooth="yes"/>
      <point x="322" y="369"/>
      <point x="366" y="310"/>
      <point x="366" y="225" type="curve" smooth="yes"/>
      <point x="366" y="129" type="line" smooth="yes"/>
      <point x="366" y="71"/>
      <point x="380" y="38"/>
      <point x="405" y="10" type="curve"/>
    </contour>
    <contour>
      <point x="365" y="213" type="move"/>
      <point x="330" y="214"/>
      <point x="298" y="216"/>
      <point x="268" y="216" type="curve" smooth="yes"/>
      <point x="191" y="216"/>
      <point x="140" y="197"/>
      <point x="108" y="166" type="curve" smooth="yes"/>
      <point x="86" y="145"/>
      <point x="79" y="121"/>
      <point x="79" y="94" type="curve" smooth="yes"/>
      <point x="79" y="57"/>
      <point x="106" y="9"/>
      <point x="181" y="9" type="curve" smooth="yes"/>
      <point x="258" y="9"/>
      <point x="316" y="41"/>
      <point x="366" y="109" type="curve"/>
    </contour>
    <contour>
      <point x="134" y="581" type="curve" smooth="yes"/>
      <point x="123" y="581"/>
      <point x="117" y="567"/>
      <point x="117" y="553" type="curve" smooth="yes"/>
      <point x="117" y="540"/>
      <point x="123" y="528"/>
      <point x="134" y="528" type="curve" smooth="yes"/>
      <point x="145" y="528"/>
      <point x="151" y="540"/>
      <point x="151" y="553" type="curve" smooth="yes"/>
      <point x="151" y="567"/>
      <point x="145" y="581"/>
    </contour>
    <contour>
      <point x="321" y="581" type="curve" smooth="yes"/>
      <point x="310" y="581"/>
      <point x="303" y="567"/>
      <point x="303" y="553" type="curve" smooth="yes"/>
      <point x="303" y="540"/>
      <point x="310" y="528"/>
      <point x="321" y="528" type="curve" smooth="yes"/>
      <point x="332" y="528"/>
      <point x="338" y="540"/>
      <point x="338" y="553" type="curve" smooth="yes"/>
      <point x="338" y="567"/>
      <point x="332" y="581"/>
    </contour>
  </outline>
</glyph>
<glyph name="aring" format="1">
  <advance width="473"/>
  <unicode hex="00E5"/>
  <outline>
    <contour>
      <point x="128" y="353" type="move"/>
      <point x="150" y="360"/>
      <point x="191" y="369"/>
      <point x="226" y="369" type="curve" smooth="yes"/>
      <point x="322" y="369"/>
      <point x="366" y="311"/>
      <point x="366" y="226" type="curve" smooth="yes"/>
      <point x="366" y="130" type="line" smooth="yes"/>
      <point x="366" y="72"/>
      <point x="380" y="39"/>
      <point x="405" y="11" type="curve"/>
    </contour>
    <contour>
      <point x="365" y="214" type="move"/>
      <point x="330" y="215"/>
      <point x="298" y="217"/>
      <point x="268" y="217" type="curve" smooth="yes"/>
      <point x="191" y="217"/>
      <point x="140" y="198"/>
      <point x="108" y="167" type="curve" smooth="yes"/>
      <point x="86" y="146"/>
      <point x="79" y="122"/>
      <point x="79" y="95" type="curve" smooth="yes"/>
      <point x="79" y="58"/>
      <point x="106" y="10"/>
      <point x="181" y="10" type="curve" smooth="yes"/>
      <point x="258" y="10"/>
      <point x="316" y="42"/>
      <point x="366" y="110" type="curve"/>
    </contour>
    <contour>
      <point x="321" y="461" type="curve" smooth="yes"/>
      <point x="321" y="504"/>
      <point x="287" y="543"/>
      <point x="230" y="543" type="curve" smooth="yes"/>
      <point x="175" y="543"/>
      <point x="142" y="501"/>
      <point x="142" y="461" type="curve" smooth="yes"/>
      <point x="142" y="421"/>
      <point x="175" y="379"/>
      <point x="230" y="379" type="curve" smooth="yes"/>
      <point x="287" y="379"/>
      <point x="321" y="418"/>
    </contour>
  </outline>
</glyph>
<glyph name="edieresis" format="1">
  <advance width="483.0"/>
  <unicode hex="00EB"/>
  <outline>
    <contour>
      <point x="91" y="188" type="move"/>
      <point x="311" y="188" type="line" smooth="yes"/>
      <point x="374" y="188"/>
      <point x="397" y="213"/>
      <point x="397" y="253" type="curve" smooth="yes"/>
      <point x="397" y="303"/>
      <point x="341" y="369"/>
      <point x="254" y="369" type="curve" smooth="yes"/>
      <point x="156" y="369"/>
      <point x="78" y="294"/>
      <point x="78" y="184" type="curve" smooth="yes"/>
      <point x="78" y="70"/>
      <point x="159" y="9"/>
      <point x="275" y="9" type="curve" smooth="yes"/>
      <point x="313" y="9"/>
      <point x="350" y="18"/>
      <point x="377" y="28" type="curve"/>
      <point x="377" y="28"/>
    </contour>
    <contour>
      <point x="149" y="581" type="curve" smooth="yes"/>
      <point x="138" y="581"/>
      <point x="131" y="567"/>
      <point x="131" y="553" type="curve" smooth="yes"/>
      <point x="131" y="540"/>
      <point x="138" y="528"/>
      <point x="149" y="528" type="curve" smooth="yes"/>
      <point x="160" y="528"/>
      <point x="166" y="540"/>
      <point x="166" y="553" type="curve" smooth="yes"/>
      <point x="166" y="567"/>
      <point x="160" y="581"/>
    </contour>
    <contour>
      <point x="336" y="581" type="curve" smooth="yes"/>
      <point x="324" y="581"/>
      <point x="318" y="567"/>
      <point x="318" y="553" type="curve" smooth="yes"/>
      <point x="318" y="540"/>
      <point x="324" y="528"/>
      <point x="336" y="528" type="curve" smooth="yes"/>
      <point x="347" y="528"/>
      <point x="353" y="540"/>
      <point x="353" y="553" type="curve" smooth="yes"/>
      <point x="353" y="567"/>
      <point x="347" y="581"/>
    </contour>
  </outline>
</glyph>
<glyph name="iacute" format="1">
  <advance width="244"/>
  <unicode hex="00ED"/>
  <outline>
    <contour>
      <point x="122" y="9" type="move"/>
      <point x="122" y="368" type="line"/>
    </contour>
    <contour>
      <point x="206" y="611" type="move"/>
      <point x="176" y="579"/>
      <point x="148" y="545"/>
      <point x="121" y="513" type="curve"/>
    </contour>
  </outline>
</glyph>
<glyph name="icircumflex" format="1">
  <advance width="244"/>
  <unicode hex="00EE"/>
  <outline>
    <contour>
      <point x="122" y="9" type="move"/>
      <point x="122" y="368" type="line"/>
    </contour>
    <contour>
      <point x="113" y="607" type="move"/>
      <point x="82" y="576"/>
      <point x="48" y="543"/>
      <point x="21" y="516" type="curve"/>
    </contour>
    <contour>
      <point x="212" y="516" type="move"/>
      <point x="185" y="543"/>
      <point x="152" y="576"/>
      <point x="120" y="607" type="curve"/>
    </contour>
  </outline>
</glyph>
<glyph name="ograve" format="1">
  <advance width="520"/>
  <unicode hex="00F2"/>
  <outline>
    <contour>
      <point x="259" y="372" type="curve" smooth="yes"/>
      <point x="146" y="372"/>
      <point x="77" y="287"/>
      <point x="77" y="185" type="curve" smooth="yes"/>
      <point x="77" y="83"/>
      <point x="148" y="5"/>
      <point x="259" y="5" type="curve" smooth="yes"/>
      <point x="371" y="5"/>
      <point x="442" y="82"/>
      <point x="442" y="183" type="curve" smooth="yes"/>
      <point x="442" y="287"/>
      <point x="372" y="372"/>
    </contour>
    <contour>
      <point x="173" y="610" type="move"/>
      <point x="202" y="574"/>
      <point x="219" y="552"/>
      <point x="246" y="511" type="curve"/>
    </contour>
  </outline>
</glyph>
<glyph name="otilde" format="1">
  <advance width="520"/>
  <unicode hex="00F5"/>
  <outline>
    <contour>
      <point x="259" y="373" type="curve" smooth="yes"/>
      <point x="146" y="373"/>
      <point x="77" y="288"/>
      <point x="77" y="186" type="curve" smooth="yes"/>
      <point x="77" y="84"/>
      <point x="148" y="5"/>
      <point x="259" y="5" type="curve" smooth="yes"/>
      <point x="371" y="5"/>
      <point x="442" y="83"/>
      <point x="442" y="184" type="curve" smooth="yes"/>
      <point x="442" y="288"/>
      <point x="372" y="373"/>
    </contour>
    <contour>
      <point x="147" y="531" type="move"/>
      <point x="167" y="561"/>
      <point x="189" y="582"/>
      <point x="210" y="582" type="curve" smooth="yes"/>
      <point x="229" y="582"/>
      <point x="242" y="571"/>
      <point x="265" y="553" type="curve" smooth="yes"/>
      <point x="286" y="538"/>
      <point x="301" y="527"/>
      <point x="319" y="527" type="curve" smooth="yes"/>
      <point x="341" y="527"/>
      <point x="358" y="546"/>
      <point x="379" y="578" type="curve"/>
    </contour>
  </outline>
</glyph>
<glyph name="odieresis" format="1">
  <advance width="520"/>
  <unicode hex="00F6"/>
  <outline>
    <contour>
      <point x="259" y="373" type="curve" smooth="yes"/>
      <point x="146" y="373"/>
      <point x="77" y="288"/>
      <point x="77" y="186" type="curve" smooth="yes"/>
      <point x="77" y="84"/>
      <point x="148" y="5"/>
      <point x="259" y="5" type="curve" smooth="yes"/>
      <point x="371" y="5"/>
      <point x="442" y="83"/>
      <point x="442" y="184" type="curve" smooth="yes"/>
      <point x="442" y="288"/>
      <point x="372" y="373"/>
    </contour>
    <contour>
      <point x="163" y="581" type="curve" smooth="yes"/>
      <point x="151" y="581"/>
      <point x="145" y="567"/>
      <point x="145" y="553" type="curve" smooth="yes"/>
      <point x="145" y="540"/>
      <point x="151" y="528"/>
      <point x="163" y="528" type="curve" smooth="yes"/>
      <point x="173" y="528"/>
      <point x="180" y="540"/>
      <point x="180" y="553" type="curve" smooth="yes"/>
      <point x="180" y="567"/>
      <point x="173" y="581"/>
    </contour>
    <contour>
      <point x="350" y="581" type="curve" smooth="yes"/>
      <point x="338" y="581"/>
      <point x="332" y="567"/>
      <point x="332" y="553" type="curve" smooth="yes"/>
      <point x="332" y="540"/>
      <point x="338" y="528"/>
      <point x="350" y="528" type="curve" smooth="yes"/>
      <point x="360" y="528"/>
      <point x="366" y="540"/>
      <point x="366" y="553" type="curve" smooth="yes"/>
      <point x="366" y="567"/>
      <point x="360" y="581"/>
    </contour>
  </outline>
</glyph>
<glyph name="divide" format="1">
  <advance width="557"/>
  <unicode hex="00F7"/>
  <outline>
    <contour>
      <point x="101" y="267" type="move"/>
      <point x="455" y="267" type="line"/>
    </contour>
    <contour>
      <point x="280" y="133" type="curve" smooth="yes"/>
      <point x="267" y="133"/>
      <point x="263" y="120"/>
      <point x="263" y="107" type="curve" smooth="yes"/>
      <point x="263" y="93"/>
      <point x="270" y="82"/>
      <point x="281" y="82" type="curve" smooth="yes"/>
      <point x="294" y="82"/>
      <point x="298" y="93"/>
      <point x="298" y="107" type="curve" smooth="yes"/>
      <point x="298" y="120"/>
      <point x="293" y="133"/>
    </contour>
    <contour>
      <point x="280" y="449" type="curve" smooth="yes"/>
      <point x="267" y="449"/>
      <point x="263" y="436"/>
      <point x="263" y="424" type="curve" smooth="yes"/>
      <point x="263" y="409"/>
      <point x="270" y="398"/>
      <point x="281" y="398" type="curve" smooth="yes"/>
      <point x="294" y="398"/>
      <point x="298" y="409"/>
      <point x="298" y="424" type="curve" smooth="yes"/>
      <point x="298" y="436"/>
      <point x="293" y="449"/>
    </contour>
  </outline>
</glyph>
<glyph name="oslash" format="1">
  <advance width="525.0"/>
  <unicode hex="00F8"/>
  <outline>
    <contour>
      <point x="82" y="14" type="move"/>
      <point x="440" y="374" type="line"/>
    </contour>
    <contour>
      <point x="263" y="378" type="curve" smooth="yes"/>
      <point x="149" y="378"/>
      <point x="80" y="293"/>
      <point x="80" y="191" type="curve" smooth="yes"/>
      <point x="80" y="89"/>
      <point x="151" y="10"/>
      <point x="263" y="10" type="curve" smooth="yes"/>
      <point x="374" y="10"/>
      <point x="445" y="88"/>
      <point x="445" y="189" type="curve" smooth="yes"/>
      <point x="445" y="293"/>
      <point x="375" y="378"/>
    </contour>
  </outline>
</glyph>
<glyph name="thorn" format="1">
  <advance width="528"/>
  <unicode hex="00FE"/>
  <outline>
    <contour>
      <point x="116" y="-186" type="move"/>
      <point x="116" y="551" type="line"/>
    </contour>
    <contour>
      <point x="116" y="82" type="move"/>
      <point x="164" y="42"/>
      <point x="222" y="15"/>
      <point x="278" y="15" type="curve" smooth="yes"/>
      <point x="381" y="15"/>
      <point x="452" y="93"/>
      <point x="452" y="195" type="curve" smooth="yes"/>
      <point x="452" y="311"/>
      <point x="376" y="374"/>
      <point x="291" y="374" type="curve" smooth="yes"/>
      <point x="223" y="374"/>
      <point x="164" y="329"/>
      <point x="117" y="262" type="curve"/>
    </contour>
  </outline>
</glyph>
<glyph name="ydieresis" format="1">
  <advance width="473"/>
  <unicode hex="00FF"/>
  <outline>
    <contour>
      <point x="66" y="-169" type="move"/>
      <point x="132" y="-131"/>
      <point x="192" y="-85"/>
      <point x="251" y="15" type="curve" smooth="yes"/>
      <point x="307" y="109"/>
      <point x="370" y="254"/>
      <point x="405" y="373" type="curve"/>
    </contour>
    <contour>
      <point x="68" y="374" type="move"/>
      <point x="125" y="213"/>
      <point x="194" y="98"/>
      <point x="248" y="15" type="curve"/>
    </contour>
    <contour>
      <point x="133" y="585" type="curve" smooth="yes"/>
      <point x="122" y="585"/>
      <point x="116" y="571"/>
      <point x="116" y="558" type="curve" smooth="yes"/>
      <point x="116" y="544"/>
      <point x="122" y="532"/>
      <point x="133" y="532" type="curve" smooth="yes"/>
      <point x="144" y="532"/>
      <point x="150" y="544"/>
      <point x="150" y="558" type="curve" smooth="yes"/>
      <point x="150" y="571"/>
      <point x="144" y="585"/>
    </contour>
    <contour>
      <point x="320" y="585" type="curve" smooth="yes"/>
      <point x="309" y="585"/>
      <point x="302" y="571"/>
      <point x="302" y="558" type="curve" smooth="yes"/>
      <point x="302" y="544"/>
      <point x="309" y="532"/>
      <point x="320" y="532" type="curve" smooth="yes"/>
      <point x="331" y="532"/>
      <point x="337" y="544"/>
      <point x="337" y="558" type="curve" smooth="yes"/>
      <point x="337" y="571"/>
      <point x="331" y="585"/>
    </contour>
  </outline>
</glyph>
<glyph name="amacron" format="1">
  <advance width="473"/>
  <unicode hex="0101"/>
  <outline>
    <contour>
      <point x="128" y="352" type="move"/>
      <point x="150" y="360"/>
      <point x="191" y="369"/>
      <point x="226" y="369" type="curve" smooth="yes"/>
      <point x="322" y="369"/>
      <point x="366" y="310"/>
      <point x="366" y="225" type="curve" smooth="yes"/>
      <point x="366" y="130" type="line" smooth="yes"/>
      <point x="366" y="72"/>
      <point x="380" y="39"/>
      <point x="405" y="11" type="curve"/>
    </contour>
    <contour>
      <point x="365" y="214" type="move"/>
      <point x="330" y="215"/>
      <point x="298" y="217"/>
      <point x="268" y="217" type="curve" smooth="yes"/>
      <point x="191" y="217"/>
      <point x="140" y="198"/>
      <point x="108" y="167" type="curve" smooth="yes"/>
      <point x="86" y="146"/>
      <point x="79" y="121"/>
      <point x="79" y="95" type="curve" smooth="yes"/>
      <point x="79" y="57"/>
      <point x="106" y="10"/>
      <point x="181" y="10" type="curve" smooth="yes"/>
      <point x="258" y="10"/>
      <point x="316" y="42"/>
      <point x="366" y="110" type="curve"/>
    </contour>
    <contour>
      <point x="330" y="550" type="move"/>
      <point x="119" y="550" type="line"/>
    </contour>
  </outline>
</glyph>
<glyph name="Aogonek" format="1">
  <advance width="620"/>
  <unicode hex="0104"/>
  <outline>
    <contour>
      <point x="295" y="535" type="move"/>
      <point x="224" y="374"/>
      <point x="124" y="148"/>
      <point x="77" y="16" type="curve"/>
    </contour>
    <contour>
      <point x="301" y="535" type="move"/>
      <point x="377" y="373"/>
      <point x="480" y="145"/>
      <point x="530" y="16" type="curve"/>
    </contour>
    <contour>
      <point x="149" y="168" type="move"/>
      <point x="455" y="168" type="line"/>
    </contour>
    <contour>
      <point x="525" y="16" type="move"/>
      <point x="525" y="-21" type="line"/>
      <point x="435" y="-94"/>
      <point x="417" y="-124"/>
      <point x="417" y="-152" type="curve" smooth="yes"/>
      <point x="417" y="-189"/>
      <point x="459" y="-215"/>
      <point x="541" y="-215" type="curve"/>
    </contour>
  </outline>
</glyph>
<glyph name="aogonek" format="1">
  <advance width="473"/>
  <unicode hex="0105"/>
  <outline>
    <contour>
      <point x="128" y="362" type="move"/>
      <point x="150" y="370"/>
      <point x="191" y="379"/>
      <point x="226" y="379" type="curve" smooth="yes"/>
      <point x="322" y="379"/>
      <point x="366" y="320"/>
      <point x="366" y="235" type="curve" smooth="yes"/>
      <point x="366" y="140" type="line" smooth="yes"/>
      <point x="366" y="82"/>
      <point x="380" y="48"/>
      <point x="405" y="21" type="curve"/>
    </contour>
    <contour>
      <point x="365" y="224" type="move"/>
      <point x="330" y="225"/>
      <point x="298" y="227"/>
      <point x="268" y="227" type="curve" smooth="yes"/>
      <point x="191" y="227"/>
      <point x="140" y="208"/>
      <point x="108" y="176" type="curve" smooth="yes"/>
      <point x="86" y="155"/>
      <point x="79" y="131"/>
      <point x="79" y="105" type="curve" smooth="yes"/>
      <point x="79" y="67"/>
      <point x="106" y="20"/>
      <point x="181" y="20" type="curve" smooth="yes"/>
      <point x="258" y="20"/>
      <point x="316" y="51"/>
      <point x="366" y="120" type="curve"/>
    </contour>
    <contour>
      <point x="405" y="22" type="move"/>
      <point x="405" y="-15" type="line"/>
      <point x="315" y="-88"/>
      <point x="297" y="-118"/>
      <point x="297" y="-146" type="curve" smooth="yes"/>
      <point x="297" y="-183"/>
      <point x="339" y="-209"/>
      <point x="421" y="-209" type="curve"/>
    </contour>
  </outline>
</glyph>
<glyph name="Cacute" format="1">
  <advance width="594"/>
  <unicode hex="0106"/>
  <outline>
    <contour>
      <point x="494" y="494" type="move"/>
      <point x="459" y="513"/>
      <point x="406" y="524"/>
      <point x="351" y="524" type="curve" smooth="yes"/>
      <point x="211" y="524"/>
      <point x="90" y="417"/>
      <point x="90" y="257" type="curve" smooth="yes"/>
      <point x="90" y="110"/>
      <point x="188" y="-4"/>
      <point x="357" y="-4" type="curve" smooth="yes"/>
      <point x="412" y="-4"/>
      <point x="460" y="8"/>
      <point x="499" y="28" type="curve"/>
    </contour>
    <contour>
      <point x="460" y="743" type="move"/>
      <point x="412" y="714"/>
      <point x="361" y="682"/>
      <point x="331" y="660" type="curve"/>
    </contour>
  </outline>
</glyph>
<glyph name="cacute" format="1">
  <advance width="458"/>
  <unicode hex="0107"/>
  <outline>
    <contour>
      <point x="366" y="352" type="move"/>
      <point x="338" y="361"/>
      <point x="303" y="368"/>
      <point x="273" y="368" type="curve" smooth="yes"/>
      <point x="149" y="368"/>
      <point x="78" y="288"/>
      <point x="78" y="179" type="curve" smooth="yes"/>
      <point x="78" y="83"/>
      <point x="147" y="9"/>
      <point x="272" y="9" type="curve" smooth="yes"/>
      <point x="315" y="9"/>
      <point x="350" y="17"/>
      <point x="379" y="29" type="curve"/>
    </contour>
    <contour>
      <point x="333" y="611" type="move"/>
      <point x="303" y="579"/>
      <point x="275" y="545"/>
      <point x="248" y="513" type="curve"/>
    </contour>
  </outline>
</glyph>
<glyph name="Ccaron" format="1">
  <advance width="594"/>
  <unicode hex="010C"/>
  <outline>
    <contour>
      <point x="494" y="494" type="move"/>
      <point x="459" y="513"/>
      <point x="406" y="524"/>
      <point x="351" y="524" type="curve" smooth="yes"/>
      <point x="211" y="524"/>
      <point x="90" y="417"/>
      <point x="90" y="257" type="curve" smooth="yes"/>
      <point x="90" y="110"/>
      <point x="188" y="-4"/>
      <point x="357" y="-4" type="curve" smooth="yes"/>
      <point x="412" y="-4"/>
      <point x="460" y="8"/>
      <point x="499" y="28" type="curve"/>
    </contour>
    <contour>
      <point x="344" y="668" type="move"/>
      <point x="379" y="693"/>
      <point x="416" y="719"/>
      <point x="445" y="741" type="curve"/>
    </contour>
    <contour>
      <point x="236" y="741" type="move"/>
      <point x="266" y="719"/>
      <point x="301" y="693"/>
      <point x="337" y="668" type="curve"/>
    </contour>
  </outline>
</glyph>
<glyph name="emacron" format="1">
  <advance width="483.0"/>
  <unicode hex="0113"/>
  <outline>
    <contour>
      <point x="91" y="189" type="move"/>
      <point x="311" y="189" type="line" smooth="yes"/>
      <point x="374" y="189"/>
      <point x="397" y="214"/>
      <point x="397" y="254" type="curve" smooth="yes"/>
      <point x="397" y="304"/>
      <point x="341" y="369"/>
      <point x="254" y="369" type="curve" smooth="yes"/>
      <point x="156" y="369"/>
      <point x="78" y="295"/>
      <point x="78" y="184" type="curve" smooth="yes"/>
      <point x="78" y="71"/>
      <point x="159" y="10"/>
      <point x="275" y="10" type="curve" smooth="yes"/>
      <point x="313" y="10"/>
      <point x="350" y="19"/>
      <point x="377" y="29" type="curve"/>
      <point x="377" y="29"/>
    </contour>
    <contour>
      <point x="345" y="550" type="move"/>
      <point x="134" y="550" type="line"/>
    </contour>
  </outline>
</glyph>
<glyph name="Edotaccent" format="1">
  <advance width="511"/>
  <unicode hex="0116"/>
  <outline>
    <contour>
      <point x="129" y="515" type="move"/>
      <point x="129" y="6" type="line"/>
    </contour>
    <contour>
      <point x="138" y="6" type="move"/>
      <point x="422" y="6" type="line"/>
    </contour>
    <contour>
      <point x="138" y="515" type="move"/>
      <point x="420" y="515" type="line"/>
    </contour>
    <contour>
      <point x="138" y="280" type="move"/>
      <point x="375" y="280" type="line"/>
    </contour>
    <contour>
      <point x="272" y="732" type="curve" smooth="yes"/>
      <point x="258" y="732"/>
      <point x="250" y="718"/>
      <point x="250" y="703" type="curve" smooth="yes"/>
      <point x="250" y="689"/>
      <point x="258" y="677"/>
      <point x="272" y="677" type="curve" smooth="yes"/>
      <point x="284" y="677"/>
      <point x="291" y="689"/>
      <point x="291" y="703" type="curve" smooth="yes"/>
      <point x="291" y="718"/>
      <point x="284" y="732"/>
    </contour>
  </outline>
</glyph>
<glyph name="ecaron" format="1">
  <advance width="483.0"/>
  <unicode hex="011B"/>
  <outline>
    <contour>
      <point x="91" y="187" type="move"/>
      <point x="311" y="187" type="line" smooth="yes"/>
      <point x="374" y="187"/>
      <point x="397" y="213"/>
      <point x="397" y="252" type="curve" smooth="yes"/>
      <point x="397" y="303"/>
      <point x="341" y="368"/>
      <point x="254" y="368" type="curve" smooth="yes"/>
      <point x="156" y="368"/>
      <point x="78" y="293"/>
      <point x="78" y="183" type="curve" smooth="yes"/>
      <point x="78" y="70"/>
      <point x="159" y="9"/>
      <point x="275" y="9" type="curve" smooth="yes"/>
      <point x="313" y="9"/>
      <point x="350" y="17"/>
      <point x="377" y="28" type="curve"/>
      <point x="377" y="28"/>
    </contour>
    <contour>
      <point x="149" y="602" type="move"/>
      <point x="176" y="575"/>
      <point x="214" y="536"/>
      <point x="239" y="511" type="curve"/>
    </contour>
    <contour>
      <point x="246" y="511" type="move"/>
      <point x="270" y="535"/>
      <point x="309" y="575"/>
      <point x="336" y="602" type="curve"/>
    </contour>
  </outline>
</glyph>
<glyph name="Gbreve" format="1">
  <advance width="649"/>
  <unicode hex="011E"/>
  <outline>
    <contour>
      <point x="505" y="496" type="move"/>
      <point x="461" y="513"/>
      <point x="411" y="524"/>
      <point x="352" y="524" type="curve" smooth="yes"/>
      <point x="201" y="524"/>
      <point x="90" y="417"/>
      <point x="90" y="257" type="curve" smooth="yes"/>
      <point x="90" y="112"/>
      <point x="185" y="-4"/>
      <point x="349" y="-4" type="curve" smooth="yes"/>
      <point x="429" y="-4"/>
      <point x="488" y="17"/>
      <point x="537" y="48" type="curve"/>
      <point x="537" y="48"/>
    </contour>
    <contour>
      <point x="538" y="58" type="move"/>
      <point x="538" y="241" type="line"/>
    </contour>
    <contour>
      <point x="526" y="241" type="move"/>
      <point x="365" y="241" type="line"/>
    </contour>
    <contour>
      <point x="212" y="746" type="move"/>
      <point x="243" y="707"/>
      <point x="288" y="680"/>
      <point x="337" y="680" type="curve" smooth="yes"/>
      <point x="393" y="680"/>
      <point x="432" y="706"/>
      <point x="459" y="746" type="curve"/>
    </contour>
  </outline>
</glyph>
<glyph name="gbreve" format="1">
  <advance width="528"/>
  <unicode hex="011F"/>
  <outline>
    <contour>
      <point x="413" y="334" type="move"/>
      <point x="358" y="360"/>
      <point x="321" y="373"/>
      <point x="263" y="373" type="curve" smooth="yes"/>
      <point x="169" y="373"/>
      <point x="78" y="299"/>
      <point x="78" y="184" type="curve" smooth="yes"/>
      <point x="78" y="74"/>
      <point x="152" y="26"/>
      <point x="227" y="26" type="curve" smooth="yes"/>
      <point x="296" y="26"/>
      <point x="365" y="65"/>
      <point x="412" y="139" type="curve"/>
    </contour>
    <contour>
      <point x="170" y="-176" type="move"/>
      <point x="338" y="-176"/>
      <point x="413" y="-82"/>
      <point x="413" y="62" type="curve" smooth="yes"/>
      <point x="413" y="373" type="line"/>
    </contour>
    <contour>
      <point x="153" y="595" type="move"/>
      <point x="179" y="558"/>
      <point x="216" y="531"/>
      <point x="260" y="531" type="curve" smooth="yes"/>
      <point x="310" y="531"/>
      <point x="340" y="557"/>
      <point x="364" y="595" type="curve"/>
    </contour>
  </outline>
</glyph>
<glyph name="lcaron" format="1">
  <advance width="369"/>
  <unicode hex="013E"/>
  <outline>
    <contour>
      <point x="321" y="574" type="move"/>
      <point x="300" y="429" type="line"/>
    </contour>
    <contour>
      <point x="122" y="10" type="move"/>
      <point x="122" y="546" type="line"/>
    </contour>
  </outline>
</glyph>
<glyph name="Nacute" format="1">
  <advance width="667"/>
  <unicode hex="0143"/>
  <outline>
    <contour>
      <point x="129" y="515" type="move"/>
      <point x="129" y="6" type="line"/>
    </contour>
    <contour>
      <point x="538" y="515" type="move"/>
      <point x="538" y="6" type="line"/>
    </contour>
    <contour>
      <point x="135" y="515" type="move"/>
      <point x="214" y="410"/>
      <point x="419" y="156"/>
      <point x="531" y="6" type="curve"/>
    </contour>
    <contour>
      <point x="470" y="722" type="move"/>
      <point x="422" y="694"/>
      <point x="372" y="661"/>
      <point x="341" y="639" type="curve"/>
    </contour>
  </outline>
</glyph>
<glyph name="ncaron" format="1">
  <advance width="522"/>
  <unicode hex="0148"/>
  <outline>
    <contour>
      <point x="116" y="9" type="move"/>
      <point x="116" y="368" type="line"/>
    </contour>
    <contour>
      <point x="417" y="9" type="move"/>
      <point x="417" y="219" type="line" smooth="yes"/>
      <point x="417" y="329"/>
      <point x="366" y="368"/>
      <point x="299" y="368" type="curve" smooth="yes"/>
      <point x="233" y="368"/>
      <point x="170" y="327"/>
      <point x="120" y="277" type="curve"/>
    </contour>
    <contour>
      <point x="156" y="602" type="move"/>
      <point x="184" y="575"/>
      <point x="222" y="536"/>
      <point x="247" y="511" type="curve"/>
    </contour>
    <contour>
      <point x="253" y="511" type="move"/>
      <point x="277" y="535"/>
      <point x="316" y="575"/>
      <point x="343" y="602" type="curve"/>
    </contour>
  </outline>
</glyph>
<glyph name="omacron" format="1">
  <advance width="520"/>
  <unicode hex="014D"/>
  <outline>
    <contour>
      <point x="259" y="374" type="curve" smooth="yes"/>
      <point x="146" y="374"/>
      <point x="77" y="289"/>
      <point x="77" y="187" type="curve" smooth="yes"/>
      <point x="77" y="85"/>
      <point x="148" y="6"/>
      <point x="259" y="6" type="curve" smooth="yes"/>
      <point x="371" y="6"/>
      <point x="442" y="84"/>
      <point x="442" y="185" type="curve" smooth="yes"/>
      <point x="442" y="289"/>
      <point x="372" y="374"/>
    </contour>
    <contour>
      <point x="365" y="550" type="move"/>
      <point x="154" y="550" type="line"/>
    </contour>
  </outline>
</glyph>
<glyph name="OE" format="1">
  <advance width="852"/>
  <unicode hex="0152"/>
  <outline>
    <contour>
      <point x="478" y="520" type="move"/>
      <point x="338" y="520" type="line" smooth="yes"/>
      <point x="190" y="520"/>
      <point x="90" y="415"/>
      <point x="90" y="263" type="curve" smooth="yes"/>
      <point x="90" y="122"/>
      <point x="192" y="11"/>
      <point x="338" y="11" type="curve" smooth="yes"/>
      <point x="508" y="11" type="line"/>
    </contour>
    <contour>
      <point x="469" y="520" type="move"/>
      <point x="469" y="11" type="line"/>
    </contour>
    <contour>
      <point x="478" y="11" type="move"/>
      <point x="762" y="11" type="line"/>
    </contour>
    <contour>
      <point x="478" y="520" type="move"/>
      <point x="760" y="520" type="line"/>
    </contour>
    <contour>
      <point x="478" y="285" type="move"/>
      <point x="715" y="285" type="line"/>
    </contour>
  </outline>
</glyph>
<glyph name="Rcaron" format="1">
  <advance width="568"/>
  <unicode hex="0158"/>
  <outline>
    <contour>
      <point x="146" y="214" type="move"/>
      <point x="284" y="214" type="line" smooth="yes"/>
      <point x="400" y="214"/>
      <point x="458" y="283"/>
      <point x="458" y="365" type="curve" smooth="yes"/>
      <point x="458" y="453"/>
      <point x="389" y="515"/>
      <point x="284" y="515" type="curve" smooth="yes"/>
      <point x="129" y="515" type="line"/>
      <point x="129" y="5" type="line"/>
    </contour>
    <contour>
      <point x="314" y="208" type="move"/>
      <point x="487" y="5" type="line"/>
    </contour>
    <contour>
      <point x="270" y="668" type="move"/>
      <point x="305" y="693"/>
      <point x="341" y="718"/>
      <point x="371" y="741" type="curve"/>
    </contour>
    <contour>
      <point x="162" y="741" type="move"/>
      <point x="191" y="718"/>
      <point x="227" y="693"/>
      <point x="263" y="668" type="curve"/>
    </contour>
  </outline>
</glyph>
<glyph name="uni015F" format="1">
  <advance width="473"/>
  <unicode hex="015F"/>
  <outline>
    <contour>
      <point x="353" y="368" type="move"/>
      <point x="322" y="376"/>
      <point x="282" y="383"/>
      <point x="238" y="383" type="curve" smooth="yes"/>
      <point x="141" y="383"/>
      <point x="104" y="338"/>
      <point x="104" y="295" type="curve" smooth="yes"/>
      <point x="104" y="256"/>
      <point x="135" y="222"/>
      <point x="230" y="212" type="curve" smooth="yes"/>
      <point x="272" y="208" type="line" smooth="yes"/>
      <point x="354" y="200"/>
      <point x="387" y="158"/>
      <point x="387" y="111" type="curve" smooth="yes"/>
      <point x="387" y="63"/>
      <point x="349" y="17"/>
      <point x="245" y="17" type="curve" smooth="yes"/>
      <point x="195" y="17"/>
      <point x="144" y="26"/>
      <point x="98" y="46" type="curve"/>
    </contour>
    <contour>
      <point x="244" y="-120" type="move"/>
      <point x="250" y="-131"/>
      <point x="253" y="-145"/>
      <point x="253" y="-159" type="curve" smooth="yes"/>
      <point x="253" y="-198"/>
      <point x="222" y="-234"/>
      <point x="172" y="-257" type="curve"/>
    </contour>
  </outline>
</glyph>
<glyph name="Umacron" format="1">
  <advance width="647"/>
  <unicode hex="016A"/>
  <outline>
    <contour>
      <point x="117" y="516" type="move"/>
      <point x="117" y="205" type="line" smooth="yes"/>
      <point x="117" y="72"/>
      <point x="201" y="-3"/>
      <point x="321" y="-3" type="curve" smooth="yes"/>
      <point x="455" y="-3"/>
      <point x="530" y="72"/>
      <point x="530" y="208" type="curve" smooth="yes"/>
      <point x="530" y="516" type="line"/>
    </contour>
    <contour>
      <point x="439" y="701" type="move"/>
      <point x="198" y="701" type="line"/>
    </contour>
  </outline>
</glyph>
<glyph name="uring" format="1">
  <advance width="522"/>
  <unicode hex="016F"/>
  <outline>
    <contour>
      <point x="406" y="368" type="move"/>
      <point x="406" y="9" type="line"/>
    </contour>
    <contour>
      <point x="105" y="368" type="move"/>
      <point x="105" y="158" type="line" smooth="yes"/>
      <point x="105" y="48"/>
      <point x="155" y="9"/>
      <point x="223" y="9" type="curve" smooth="yes"/>
      <point x="289" y="9"/>
      <point x="358" y="60"/>
      <point x="402" y="121" type="curve"/>
    </contour>
    <contour>
      <point x="345" y="519" type="curve" smooth="yes"/>
      <point x="345" y="562"/>
      <point x="311" y="601"/>
      <point x="254" y="601" type="curve" smooth="yes"/>
      <point x="200" y="601"/>
      <point x="166" y="559"/>
      <point x="166" y="519" type="curve" smooth="yes"/>
      <point x="166" y="479"/>
      <point x="200" y="437"/>
      <point x="254" y="437" type="curve" smooth="yes"/>
      <point x="311" y="437"/>
      <point x="345" y="476"/>
    </contour>
  </outline>
</glyph>
<glyph name="Uhungarumlaut" format="1">
  <advance width="647"/>
  <unicode hex="0170"/>
  <outline>
    <contour>
      <point x="117" y="515" type="move"/>
      <point x="117" y="204" type="line" smooth="yes"/>
      <point x="117" y="70"/>
      <point x="201" y="-4"/>
      <point x="321" y="-4" type="curve" smooth="yes"/>
      <point x="455" y="-4"/>
      <point x="530" y="70"/>
      <point x="530" y="207" type="curve" smooth="yes"/>
      <point x="530" y="515" type="line"/>
    </contour>
    <contour>
      <point x="267" y="757" type="move"/>
      <point x="244" y="720"/>
      <point x="228" y="689"/>
      <point x="215" y="657" type="curve"/>
    </contour>
    <contour>
      <point x="482" y="757" type="move"/>
      <point x="459" y="720"/>
      <point x="443" y="689"/>
      <point x="431" y="657" type="curve"/>
    </contour>
  </outline>
</glyph>
<glyph name="uhungarumlaut" format="1">
  <advance width="522"/>
  <unicode hex="0171"/>
  <outline>
    <contour>
      <point x="406" y="368" type="move"/>
      <point x="406" y="9" type="line"/>
    </contour>
    <contour>
      <point x="105" y="368" type="move"/>
      <point x="105" y="158" type="line" smooth="yes"/>
      <point x="105" y="48"/>
      <point x="155" y="9"/>
      <point x="223" y="9" type="curve" smooth="yes"/>
      <point x="289" y="9"/>
      <point x="358" y="60"/>
      <point x="402" y="121" type="curve"/>
    </contour>
    <contour>
      <point x="221" y="604" type="move"/>
      <point x="197" y="567"/>
      <point x="182" y="536"/>
      <point x="169" y="504" type="curve"/>
    </contour>
    <contour>
      <point x="394" y="604" type="move"/>
      <point x="371" y="567"/>
      <point x="355" y="536"/>
      <point x="342" y="504" type="curve"/>
    </contour>
  </outline>
</glyph>
<glyph name="Uogonek" format="1">
  <advance width="647"/>
  <unicode hex="0172"/>
  <outline>
    <contour>
      <point x="117" y="526" type="move"/>
      <point x="117" y="215" type="line" smooth="yes"/>
      <point x="117" y="82"/>
      <point x="201" y="7"/>
      <point x="321" y="7" type="curve" smooth="yes"/>
      <point x="455" y="7"/>
      <point x="530" y="82"/>
      <point x="530" y="218" type="curve" smooth="yes"/>
      <point x="530" y="526" type="line"/>
    </contour>
    <contour>
      <point x="344" y="8" type="move"/>
      <point x="344" y="-29" type="line"/>
      <point x="254" y="-102"/>
      <point x="236" y="-131"/>
      <point x="236" y="-160" type="curve" smooth="yes"/>
      <point x="236" y="-197"/>
      <point x="278" y="-223"/>
      <point x="360" y="-223" type="curve"/>
    </contour>
  </outline>
</glyph>
<glyph name="zacute" format="1">
  <advance width="466"/>
  <unicode hex="017A"/>
  <outline>
    <contour>
      <point x="373" y="368" type="move"/>
      <point x="90" y="368" type="line"/>
    </contour>
    <contour>
      <point x="75" y="9" type="move"/>
      <point x="391" y="9" type="line"/>
    </contour>
    <contour>
      <point x="379" y="368" type="move"/>
      <point x="81" y="17" type="line"/>
    </contour>
    <contour>
      <point x="308" y="611" type="move"/>
      <point x="278" y="579"/>
      <point x="250" y="545"/>
      <point x="223" y="513" type="curve"/>
    </contour>
  </outline>
</glyph>
<glyph name="zdotaccent" format="1">
  <advance width="466"/>
  <unicode hex="017C"/>
  <outline>
    <contour>
      <point x="373" y="368" type="move"/>
      <point x="90" y="368" type="line"/>
    </contour>
    <contour>
      <point x="75" y="9" type="move"/>
      <point x="391" y="9" type="line"/>
    </contour>
    <contour>
      <point x="379" y="368" type="move"/>
      <point x="81" y="18" type="line"/>
    </contour>
    <contour>
      <point x="231" y="586" type="curve" smooth="yes"/>
      <point x="218" y="586"/>
      <point x="211" y="572"/>
      <point x="211" y="558" type="curve" smooth="yes"/>
      <point x="211" y="545"/>
      <point x="218" y="533"/>
      <point x="231" y="533" type="curve" smooth="yes"/>
      <point x="243" y="533"/>
      <point x="249" y="545"/>
      <point x="249" y="558" type="curve" smooth="yes"/>
      <point x="249" y="572"/>
      <point x="243" y="586"/>
    </contour>
  </outline>
</glyph>
<glyph name="zcaron" format="1">
  <advance width="466"/>
  <unicode hex="017E"/>
  <outline>
    <contour>
      <point x="373" y="368" type="move"/>
      <point x="90" y="368" type="line"/>
    </contour>
    <contour>
      <point x="75" y="9" type="move"/>
      <point x="391" y="9" type="line"/>
    </contour>
    <contour>
      <point x="379" y="368" type="move"/>
      <point x="81" y="17" type="line"/>
    </contour>
    <contour>
      <point x="128" y="602" type="move"/>
      <point x="155" y="575"/>
      <point x="193" y="536"/>
      <point x="218" y="511" type="curve"/>
    </contour>
    <contour>
      <point x="225" y="511" type="move"/>
      <point x="249" y="535"/>
      <point x="288" y="575"/>
      <point x="315" y="602" type="curve"/>
    </contour>
  </outline>
</glyph>
<glyph name="circumflex" format="1">
  <advance width="515"/>
  <unicode hex="02C6"/>
  <outline>
    <contour>
      <point x="252" y="595" type="move"/>
      <point x="221" y="564"/>
      <point x="187" y="531"/>
      <point x="160" y="504" type="curve"/>
    </contour>
    <contour>
      <point x="351" y="504" type="move"/>
      <point x="323" y="531"/>
      <point x="291" y="564"/>
      <point x="258" y="595" type="curve"/>
    </contour>
  </outline>
</glyph>
<glyph name="ring" format="1">
  <advance width="515"/>
  <unicode hex="02DA"/>
  <outline>
    <contour>
      <point x="347" y="546" type="curve" smooth="yes"/>
      <point x="347" y="586"/>
      <point x="315" y="623"/>
      <point x="263" y="623" type="curve" smooth="yes"/>
      <point x="212" y="623"/>
      <point x="181" y="584"/>
      <point x="181" y="546" type="curve" smooth="yes"/>
      <point x="181" y="508"/>
      <point x="212" y="469"/>
      <point x="263" y="469" type="curve" smooth="yes"/>
      <point x="315" y="469"/>
      <point x="347" y="506"/>
    </contour>
  </outline>
</glyph>
<glyph name="hungarumlaut" format="1">
  <advance width="515"/>
  <unicode hex="02DD"/>
  <outline>
    <contour>
      <point x="194" y="592" type="move"/>
      <point x="171" y="556"/>
      <point x="155" y="524"/>
      <point x="143" y="493" type="curve"/>
    </contour>
    <contour>
      <point x="368" y="592" type="move"/>
      <point x="344" y="556"/>
      <point x="329" y="524"/>
      <point x="316" y="493" type="curve"/>
    </contour>
  </outline>
</glyph>
<glyph name="pi" format="1">
  <advance width="665"/>
  <unicode hex="03C0"/>
  <outline>
    <contour>
      <point x="460" y="407" type="move"/>
      <point x="460" y="13" type="line"/>
    </contour>
    <contour>
      <point x="96" y="413" type="move"/>
      <point x="568" y="413" type="line"/>
    </contour>
    <contour>
      <point x="208" y="407" type="move"/>
      <point x="208" y="219" type="line" smooth="yes"/>
      <point x="208" y="98"/>
      <point x="181" y="48"/>
      <point x="124" y="13" type="curve"/>
    </contour>
  </outline>
</glyph>
<glyph name="quoteright" format="1">
  <advance width="257"/>
  <unicode hex="2019"/>
  <outline>
    <contour>
      <point x="130" y="572" type="move"/>
      <point x="134" y="560"/>
      <point x="137" y="541"/>
      <point x="137" y="521" type="curve" smooth="yes"/>
      <point x="137" y="473"/>
      <point x="121" y="424"/>
      <point x="93" y="388" type="curve"/>
    </contour>
  </outline>
</glyph>
<glyph name="quotedblleft" format="1">
  <advance width="426"/>
  <unicode hex="201C"/>
  <outline>
    <contour>
      <point x="165" y="388" type="move" smooth="yes"/>
      <point x="138" y="423"/>
      <point x="121" y="471"/>
      <point x="121" y="512" type="curve" smooth="yes"/>
      <point x="121" y="537"/>
      <point x="123" y="555"/>
      <point x="127" y="571" type="curve"/>
    </contour>
    <contour>
      <point x="333" y="388" type="move" smooth="yes"/>
      <point x="306" y="423"/>
      <point x="289" y="471"/>
      <point x="289" y="512" type="curve" smooth="yes"/>
      <point x="289" y="537"/>
      <point x="291" y="555"/>
      <point x="295" y="571" type="curve"/>
    </contour>
  </outline>
</glyph>
<glyph name="quotedblright" format="1">
  <advance width="426"/>
  <unicode hex="201D"/>
  <outline>
    <contour>
      <point x="299" y="571" type="move"/>
      <point x="303" y="555"/>
      <point x="306" y="537"/>
      <point x="306" y="512" type="curve" smooth="yes"/>
      <point x="306" y="471"/>
      <point x="289" y="423"/>
      <point x="261" y="388" type="curve" smooth="yes"/>
    </contour>
    <contour>
      <point x="131" y="571" type="move"/>
      <point x="135" y="555"/>
      <point x="138" y="537"/>
      <point x="138" y="512" type="curve" smooth="yes"/>
      <point x="138" y="471"/>
      <point x="121" y="423"/>
      <point x="93" y="388" type="curve" smooth="yes"/>
    </contour>
  </outline>
</glyph>
<glyph name="bullet" format="1">
  <advance width="547"/>
  <unicode hex="2022"/>
  <outline>
    <contour>
      <point x="273" y="345" type="curve" smooth="yes"/>
      <point x="208" y="345"/>
      <point x="163" y="291"/>
      <point x="163" y="237" type="curve" smooth="yes"/>
      <point x="163" y="176"/>
      <point x="211" y="129"/>
      <point x="273" y="129" type="curve" smooth="yes"/>
      <point x="338" y="129"/>
      <point x="383" y="177"/>
      <point x="383" y="236" type="curve" smooth="yes"/>
      <point x="383" y="291"/>
      <point x="342" y="345"/>
    </contour>
    <contour>
      <point x="274" y="283" type="curve" smooth="yes"/>
      <point x="247" y="283"/>
      <point x="227" y="261"/>
      <point x="227" y="239" type="curve" smooth="yes"/>
      <point x="227" y="212"/>
      <point x="248" y="192"/>
      <point x="274" y="192" type="curve" smooth="yes"/>
      <point x="300" y="192"/>
      <point x="320" y="212"/>
      <point x="320" y="237" type="curve" smooth="yes"/>
      <point x="320" y="261"/>
      <point x="305" y="283"/>
    </contour>
  </outline>
</glyph>
<glyph name="ellipsis" format="1">
  <advance width="726"/>
  <unicode hex="2026"/>
  <outline>
    <contour>
      <point x="119" y="77" type="curve" smooth="yes"/>
      <point x="103" y="77"/>
      <point x="98" y="62"/>
      <point x="98" y="47" type="curve" smooth="yes"/>
      <point x="98" y="29"/>
      <point x="107" y="17"/>
      <point x="120" y="17" type="curve" smooth="yes"/>
      <point x="134" y="17"/>
      <point x="141" y="29"/>
      <point x="141" y="47" type="curve" smooth="yes"/>
      <point x="141" y="62"/>
      <point x="133" y="77"/>
    </contour>
    <contour>
      <point x="362" y="77" type="curve" smooth="yes"/>
      <point x="347" y="77"/>
      <point x="341" y="62"/>
      <point x="341" y="47" type="curve" smooth="yes"/>
      <point x="341" y="29"/>
      <point x="351" y="17"/>
      <point x="363" y="17" type="curve" smooth="yes"/>
      <point x="378" y="17"/>
      <point x="384" y="29"/>
      <point x="384" y="47" type="curve" smooth="yes"/>
      <point x="384" y="62"/>
      <point x="377" y="77"/>
    </contour>
    <contour>
      <point x="607" y="77" type="curve" smooth="yes"/>
      <point x="591" y="77"/>
      <point x="586" y="62"/>
      <point x="586" y="47" type="curve" smooth="yes"/>
      <point x="586" y="29"/>
      <point x="595" y="17"/>
      <point x="608" y="17" type="curve" smooth="yes"/>
      <point x="623" y="17"/>
      <point x="629" y="29"/>
      <point x="629" y="47" type="curve" smooth="yes"/>
      <point x="629" y="62"/>
      <point x="622" y="77"/>
    </contour>
  </outline>
</glyph>
<glyph name="uni20BA" format="1">
  <advance width="520"/>
  <unicode hex="20BA"/>
  <outline>
    <contour>
      <point x="148" y="520" type="move"/>
      <point x="148" y="11" type="line"/>
    </contour>
    <contour>
      <point x="156" y="11" type="move"/>
      <point x="270" y="8" type="line" smooth="yes"/>
      <point x="373" y="11"/>
      <point x="440" y="65"/>
      <point x="450" y="162" type="curve"/>
    </contour>
    <contour>
      <point x="313" y="435" type="move"/>
      <point x="65" y="341" type="line"/>
    </contour>
    <contour>
      <point x="313" y="268" type="move"/>
      <point x="65" y="174" type="line"/>
    </contour>
  </outline>
</glyph>
<glyph name="uni20BD" format="1">
  <advance width="559"/>
  <unicode hex="20BD"/>
  <outline>
    <contour>
      <point x="68" y="262" type="move"/>
      <point x="308" y="262" type="line" smooth="yes"/>
      <point x="424" y="262"/>
      <point x="475" y="321"/>
      <point x="475" y="391" type="curve" smooth="yes"/>
      <point x="475" y="468"/>
      <point x="412" y="520"/>
      <point x="308" y="520" type="curve" smooth="yes"/>
      <point x="166" y="520" type="line"/>
      <point x="166" y="11" type="line"/>
    </contour>
    <contour>
      <point x="67" y="105" type="move"/>
      <point x="342" y="105" type="line"/>
    </contour>
  </outline>
</glyph>
<glyph name="trademark" format="1">
  <advance width="796"/>
  <unicode hex="2122"/>
  <outline>
    <contour>
      <point x="173" y="539" type="move"/>
      <point x="173" y="286" type="line"/>
    </contour>
    <contour>
      <point x="63" y="539" type="move"/>
      <point x="286" y="539" type="line"/>
    </contour>
    <contour>
      <point x="425" y="543" type="move"/>
      <point x="413" y="469"/>
      <point x="396" y="346"/>
      <point x="390" y="285" type="curve"/>
    </contour>
    <contour>
      <point x="672" y="544" type="move"/>
      <point x="689" y="462"/>
      <point x="701" y="355"/>
      <point x="711" y="285" type="curve"/>
    </contour>
    <contour>
      <point x="436" y="537" type="move"/>
      <point x="467" y="471"/>
      <point x="517" y="368"/>
      <point x="551" y="295" type="curve"/>
    </contour>
    <contour>
      <point x="553" y="302" type="move"/>
      <point x="584" y="372"/>
      <point x="626" y="463"/>
      <point x="665" y="540" type="curve"/>
    </contour>
  </outline>
</glyph>
<glyph name="partialdiff" format="1">
  <advance width="594"/>
  <unicode hex="2202"/>
  <outline>
    <contour>
      <point x="229" y="477" type="move"/>
      <point x="258" y="505"/>
      <point x="299" y="524"/>
      <point x="338" y="524" type="curve" smooth="yes"/>
      <point x="372" y="524"/>
      <point x="405" y="511"/>
      <point x="429" y="487" type="curve" smooth="yes"/>
      <point x="462" y="454"/>
      <point x="477" y="383"/>
      <point x="477" y="311" type="curve" smooth="yes"/>
      <point x="477" y="208"/>
      <point x="442" y="104"/>
      <point x="399" y="61" type="curve" smooth="yes"/>
      <point x="364" y="27"/>
      <point x="320" y="8"/>
      <point x="275" y="8" type="curve" smooth="yes"/>
      <point x="190" y="8"/>
      <point x="131" y="69"/>
      <point x="131" y="143" type="curve" smooth="yes"/>
      <point x="131" y="233"/>
      <point x="201" y="309"/>
      <point x="322" y="309" type="curve" smooth="yes"/>
      <point x="362" y="309"/>
      <point x="412" y="302"/>
      <point x="463" y="290" type="curve"/>
    </contour>
  </outline>
</glyph>
<glyph name="radical" format="1">
  <advance width="564"/>
  <unicode hex="221A"/>
  <outline>
    <contour>
      <point x="141" y="316" type="move"/>
      <point x="182" y="222"/>
      <point x="247" y="82"/>
      <point x="287" y="5" type="curve"/>
    </contour>
    <contour>
      <point x="290" y="-2" type="move"/>
      <point x="338" y="132"/>
      <point x="440" y="439"/>
      <point x="485" y="612" type="curve"/>
    </contour>
    <contour>
      <point x="135" y="327" type="move"/>
      <point x="66" y="306" type="line"/>
    </contour>
  </outline>
</glyph>
<glyph name="approxequal" format="1">
  <advance width="557"/>
  <unicode hex="2248"/>
  <outline>
    <contour>
      <point x="72" y="325" type="move"/>
      <point x="109" y="383"/>
      <point x="145" y="411"/>
      <point x="186" y="411" type="curve" smooth="yes"/>
      <point x="224" y="411"/>
      <point x="249" y="393"/>
      <point x="279" y="366" type="curve" smooth="yes"/>
      <point x="313" y="338"/>
      <point x="340" y="318"/>
      <point x="375" y="318" type="curve" smooth="yes"/>
      <point x="421" y="318"/>
      <point x="455" y="347"/>
      <point x="496" y="408" type="curve"/>
    </contour>
    <contour>
      <point x="72" y="114" type="move"/>
      <point x="109" y="172"/>
      <point x="141" y="204"/>
      <point x="186" y="204" type="curve" smooth="yes"/>
      <point x="218" y="204"/>
      <point x="248" y="181"/>
      <point x="279" y="157" type="curve" smooth="yes"/>
      <point x="314" y="130"/>
      <point x="340" y="110"/>
      <point x="376" y="110" type="curve" smooth="yes"/>
      <point x="421" y="110"/>
      <point x="455" y="136"/>
      <point x="496" y="198" type="curve"/>
    </contour>
  </outline>
</glyph>
<glyph name="lessequal" format="1">
  <advance width="592"/>
  <unicode hex="2264"/>
  <outline>
    <contour>
      <point x="502" y="68" type="move"/>
      <point x="113" y="68" type="line"/>
    </contour>
    <contour>
      <point x="121" y="336" type="move"/>
      <point x="479" y="209" type="line"/>
    </contour>
    <contour>
      <point x="485" y="473" type="move"/>
      <point x="114" y="339" type="line"/>
    </contour>
  </outline>
</glyph>
<glyph name="lozenge" format="1">
  <advance width="408"/>
  <unicode hex="25CA"/>
  <outline>
    <contour>
      <point x="79" y="259" type="move"/>
      <point x="102" y="189"/>
      <point x="182" y="27"/>
      <point x="205" y="-14" type="curve"/>
    </contour>
    <contour>
      <point x="207" y="-17" type="move"/>
      <point x="233" y="30"/>
      <point x="306" y="179"/>
      <point x="334" y="259" type="curve"/>
    </contour>
    <contour>
      <point x="205" y="543" type="move"/>
      <point x="182" y="502"/>
      <point x="102" y="340"/>
      <point x="79" y="270" type="curve"/>
    </contour>
    <contour>
      <point x="334" y="270" type="move"/>
      <point x="306" y="350"/>
      <point x="233" y="499"/>
      <point x="207" y="546" type="curve"/>
    </contour>
  </outline>
</glyph>
<glyph name="acutecmb.cap" format="1">
  <advance width="0.0"/>
  <outline>
    <contour>
      <point x="113" y="727" type="move"/>
      <point x="65" y="699"/>
      <point x="15" y="666"/>
      <point x="-16" y="644" type="curve"/>
    </contour>
  </outline>
</glyph>
<glyph name="brevecmb.cap" format="1">
  <advance width="0"/>
  <outline>
    <contour>
      <point x="-130" y="731" type="move"/>
      <point x="-100" y="692"/>
      <point x="-55" y="664"/>
      <point x="-5" y="664" type="curve" smooth="yes"/>
      <point x="50" y="664"/>
      <point x="89" y="691"/>
      <point x="117" y="731" type="curve"/>
    </contour>
  </outline>
</glyph>
<glyph name="caroncmb" format="1">
  <advance width="0.0"/>
  <outline>
    <contour>
      <point x="-104" y="590" type="move"/>
      <point x="-77" y="563"/>
      <point x="-39" y="524"/>
      <point x="-14" y="499" type="curve"/>
    </contour>
    <contour>
      <point x="-7" y="499" type="move"/>
      <point x="17" y="523"/>
      <point x="56" y="563"/>
      <point x="83" y="590" type="curve"/>
    </contour>
  </outline>
</glyph>
<glyph name="circumflexcmb" format="1">
  <advance width="0"/>
  <outline>
    <contour>
      <point x="-7" y="595" type="move"/>
      <point x="-39" y="564"/>
      <point x="-72" y="531"/>
      <point x="-100" y="504" type="curve"/>
    </contour>
    <contour>
      <point x="91" y="504" type="move"/>
      <point x="64" y="531"/>
      <point x="31" y="564"/>
      <point x="-1" y="595" type="curve"/>
    </contour>
  </outline>
</glyph>
<glyph name="commaaccent" format="1">
  <advance width="242"/>
  <outline>
    <contour>
      <point x="138" y="-101" type="move"/>
      <point x="144" y="-112"/>
      <point x="147" y="-126"/>
      <point x="147" y="-140" type="curve" smooth="yes"/>
      <point x="147" y="-179"/>
      <point x="116" y="-215"/>
      <point x="66" y="-238" type="curve"/>
    </contour>
  </outline>
</glyph>
<glyph name="commaaccentcmb" format="1">
  <advance width="0"/>
  <outline>
    <contour>
      <point x="-91" y="-101" type="move"/>
      <point x="-85" y="-112"/>
      <point x="-82" y="-126"/>
      <point x="-82" y="-140" type="curve" smooth="yes"/>
      <point x="-82" y="-179"/>
      <point x="-113" y="-215"/>
      <point x="-163" y="-238" type="curve"/>
    </contour>
  </outline>
</glyph>
<glyph name="dotaccentcmb" format="1">
  <advance width="0"/>
  <outline>
    <contour>
      <point x="-8" y="573" type="curve" smooth="yes"/>
      <point x="-21" y="573"/>
      <point x="-28" y="560"/>
      <point x="-28" y="546" type="curve" smooth="yes"/>
      <point x="-28" y="532"/>
      <point x="-21" y="521"/>
      <point x="-8" y="521" type="curve" smooth="yes"/>
      <point x="3" y="521"/>
      <point x="9" y="532"/>
      <point x="9" y="546" type="curve" smooth="yes"/>
      <point x="9" y="560"/>
      <point x="3" y="573"/>
    </contour>
  </outline>
</glyph>
<glyph name="hungarianumlautcmb.cap" format="1">
  <advance width="0.0"/>
  <outline>
    <contour>
      <point x="-25" y="723" type="move"/>
      <point x="-60" y="697"/>
      <point x="-91" y="671"/>
      <point x="-119" y="643" type="curve"/>
    </contour>
    <contour>
      <point x="190" y="723" type="move"/>
      <point x="152" y="692"/>
      <point x="122" y="665"/>
      <point x="97" y="643" type="curve"/>
    </contour>
  </outline>
</glyph>
<glyph name="ogonekcmb" format="1">
  <advance width="0.0"/>
  <outline>
    <contour>
      <point x="-21" y="24" type="move"/>
      <point x="-21" y="-12" type="line"/>
      <point x="-111" y="-86"/>
      <point x="-129" y="-115"/>
      <point x="-129" y="-144" type="curve" smooth="yes"/>
      <point x="-129" y="-180"/>
      <point x="-87" y="-207"/>
      <point x="-5" y="-207" type="curve"/>
    </contour>
  </outline>
</glyph>
<glyph name="ringcmb" format="1">
  <advance width="0"/>
  <outline>
    <contour>
      <point x="83" y="581" type="curve" smooth="yes"/>
      <point x="83" y="624"/>
      <point x="48" y="663"/>
      <point x="-8" y="663" type="curve" smooth="yes"/>
      <point x="-63" y="663"/>
      <point x="-97" y="621"/>
      <point x="-97" y="581" type="curve" smooth="yes"/>
      <point x="-97" y="541"/>
      <point x="-63" y="499"/>
      <point x="-8" y="499" type="curve" smooth="yes"/>
      <point x="48" y="499"/>
      <point x="83" y="538"/>
    </contour>
  </outline>
</glyph>
<glyph name="threesuperior" format="1">
  <advance width="401"/>
  <outline>
    <contour>
      <point x="113" y="515" type="move"/>
      <point x="294" y="515" type="line"/>
    </contour>
    <contour>
      <point x="103" y="257" type="move"/>
      <point x="128" y="248"/>
      <point x="161" y="240"/>
      <point x="198" y="240" type="curve" smooth="yes"/>
      <point x="269" y="240"/>
      <point x="303" y="273"/>
      <point x="303" y="316" type="curve" smooth="yes"/>
      <point x="303" y="360"/>
      <point x="267" y="390"/>
      <point x="206" y="390" type="curve" smooth="yes"/>
      <point x="176" y="390"/>
      <point x="153" y="385"/>
      <point x="141" y="381" type="curve"/>
    </contour>
    <contour>
      <point x="289" y="510" type="move"/>
      <point x="143" y="383" type="line" smooth="yes"/>
    </contour>
  </outline>
</glyph>
<glyph name="tildecmb.cap" format="1">
  <advance width="0"/>
  <outline>
    <contour>
      <point x="-139" y="667" type="move"/>
      <point x="-114" y="697"/>
      <point x="-91" y="716"/>
      <point x="-67" y="716" type="curve" smooth="yes"/>
      <point x="-45" y="716"/>
      <point x="-26" y="704"/>
      <point x="-5" y="688" type="curve" smooth="yes"/>
      <point x="16" y="672"/>
      <point x="35" y="661"/>
      <point x="56" y="661" type="curve" smooth="yes"/>
      <point x="85" y="661"/>
      <point x="107" y="680"/>
      <point x="134" y="715" type="curve"/>
    </contour>
  </outline>
</glyph>
<glyph name="twosuperior" format="1">
  <advance width="373"/>
  <outline>
    <contour>
      <point x="96" y="257" type="move"/>
      <point x="189" y="344" type="line" smooth="yes"/>
      <point x="250" y="402"/>
      <point x="269" y="424"/>
      <point x="269" y="458" type="curve" smooth="yes"/>
      <point x="269" y="490"/>
      <point x="244" y="520"/>
      <point x="190" y="520" type="curve" smooth="yes"/>
      <point x="160" y="520"/>
      <point x="135" y="512"/>
      <point x="109" y="495" type="curve"/>
    </contour>
    <contour>
      <point x="289" y="252" type="move"/>
      <point x="90" y="252" type="line"/>
    </contour>
  </outline>
</glyph>
<glyph name="uni0122" format="1">
  <advance width="649"/>
  <outline>
    <contour>
      <point x="505" y="507" type="move"/>
      <point x="461" y="524"/>
      <point x="411" y="536"/>
      <point x="352" y="536" type="curve" smooth="yes"/>
      <point x="201" y="536"/>
      <point x="90" y="429"/>
      <point x="90" y="268" type="curve" smooth="yes"/>
      <point x="90" y="123"/>
      <point x="185" y="8"/>
      <point x="349" y="8" type="curve" smooth="yes"/>
      <point x="429" y="8"/>
      <point x="488" y="29"/>
      <point x="537" y="59" type="curve"/>
      <point x="537" y="59"/>
    </contour>
    <contour>
      <point x="538" y="70" type="move"/>
      <point x="538" y="252" type="line"/>
    </contour>
    <contour>
      <point x="526" y="252" type="move"/>
      <point x="365" y="252" type="line"/>
    </contour>
    <contour>
      <point x="350" y="-116" type="move"/>
      <point x="356" y="-128"/>
      <point x="359" y="-141"/>
      <point x="359" y="-155" type="curve" smooth="yes"/>
      <point x="359" y="-195"/>
      <point x="328" y="-231"/>
      <point x="278" y="-254" type="curve"/>
    </contour>
  </outline>
</glyph>
<glyph name="uni0123" format="1">
  <advance width="528"/>
  <outline>
    <contour>
      <point x="413" y="332" type="move"/>
      <point x="358" y="359"/>
      <point x="321" y="371"/>
      <point x="263" y="371" type="curve" smooth="yes"/>
      <point x="169" y="371"/>
      <point x="78" y="298"/>
      <point x="78" y="182" type="curve" smooth="yes"/>
      <point x="78" y="72"/>
      <point x="152" y="25"/>
      <point x="227" y="25" type="curve" smooth="yes"/>
      <point x="296" y="25"/>
      <point x="365" y="64"/>
      <point x="412" y="137" type="curve"/>
    </contour>
    <contour>
      <point x="170" y="-178" type="move"/>
      <point x="338" y="-178"/>
      <point x="413" y="-83"/>
      <point x="413" y="60" type="curve" smooth="yes"/>
      <point x="413" y="371" type="line"/>
    </contour>
    <contour>
      <point x="280" y="520" type="move"/>
      <point x="274" y="532"/>
      <point x="271" y="546"/>
      <point x="271" y="559" type="curve" smooth="yes"/>
      <point x="271" y="599"/>
      <point x="302" y="635"/>
      <point x="352" y="658" type="curve"/>
    </contour>
  </outline>
</glyph>
<glyph name="uni0136" format="1">
  <advance width="581"/>
  <outline>
    <contour>
      <point x="129" y="526" type="move"/>
      <point x="129" y="17" type="line"/>
    </contour>
    <contour>
      <point x="259" y="309" type="move"/>
      <point x="319" y="236"/>
      <point x="445" y="83"/>
      <point x="503" y="17" type="curve"/>
    </contour>
    <contour>
      <point x="129" y="193" type="move"/>
      <point x="180" y="239"/>
      <point x="377" y="416"/>
      <point x="482" y="526" type="curve"/>
    </contour>
    <contour>
      <point x="293" y="-96" type="move"/>
      <point x="299" y="-107"/>
      <point x="302" y="-121"/>
      <point x="302" y="-134" type="curve" smooth="yes"/>
      <point x="302" y="-174"/>
      <point x="271" y="-210"/>
      <point x="222" y="-233" type="curve"/>
    </contour>
  </outline>
</glyph>
<glyph name="uni0146" format="1">
  <advance width="522"/>
  <outline>
    <contour>
      <point x="116" y="21" type="move"/>
      <point x="116" y="380" type="line"/>
    </contour>
    <contour>
      <point x="417" y="21" type="move"/>
      <point x="417" y="231" type="line" smooth="yes"/>
      <point x="417" y="341"/>
      <point x="366" y="380"/>
      <point x="299" y="380" type="curve" smooth="yes"/>
      <point x="233" y="380"/>
      <point x="170" y="339"/>
      <point x="120" y="288" type="curve"/>
    </contour>
    <contour>
      <point x="267" y="-102" type="move"/>
      <point x="273" y="-114"/>
      <point x="276" y="-127"/>
      <point x="276" y="-141" type="curve" smooth="yes"/>
      <point x="276" y="-181"/>
      <point x="245" y="-217"/>
      <point x="195" y="-240" type="curve"/>
    </contour>
  </outline>
</glyph>
<glyph name="uni0157" format="1">
  <advance width="365"/>
  <outline>
    <contour>
      <point x="116" y="21" type="move"/>
      <point x="116" y="380" type="line"/>
    </contour>
    <contour>
      <point x="117" y="242" type="move"/>
      <point x="166" y="319"/>
      <point x="225" y="368"/>
      <point x="317" y="380" type="curve"/>
    </contour>
    <contour>
      <point x="113" y="-112" type="move"/>
      <point x="120" y="-124"/>
      <point x="123" y="-138"/>
      <point x="123" y="-151" type="curve" smooth="yes"/>
      <point x="123" y="-191"/>
      <point x="91" y="-227"/>
      <point x="42" y="-250" type="curve"/>
    </contour>
  </outline>
</glyph>
<glyph name="uni0163" format="1">
  <advance width="372"/>
  <outline>
    <contour>
      <point x="141" y="509" type="move"/>
      <point x="141" y="141" type="line" smooth="yes"/>
      <point x="141" y="63"/>
      <point x="187" y="20"/>
      <point x="293" y="18" type="curve"/>
    </contour>
    <contour>
      <point x="48" y="377" type="move"/>
      <point x="307" y="377" type="line"/>
    </contour>
    <contour>
      <point x="212" y="-116" type="move"/>
      <point x="218" y="-127"/>
      <point x="222" y="-141"/>
      <point x="222" y="-154" type="curve" smooth="yes"/>
      <point x="222" y="-194"/>
      <point x="190" y="-230"/>
      <point x="141" y="-253" type="curve"/>
    </contour>
  </outline>
</glyph>
<glyph name="uni0218" format="1">
  <advance width="551"/>
  <outline>
    <contour>
      <point x="413" y="501" type="move"/>
      <point x="363" y="521"/>
      <point x="328" y="532"/>
      <point x="255" y="532" type="curve" smooth="yes"/>
      <point x="166" y="532"/>
      <point x="112" y="479"/>
      <point x="112" y="423" type="curve" smooth="yes"/>
      <point x="112" y="371"/>
      <point x="137" y="312"/>
      <point x="277" y="285" type="curve" smooth="yes"/>
      <point x="405" y="256"/>
      <point x="448" y="203"/>
      <point x="448" y="136" type="curve" smooth="yes"/>
      <point x="448" y="68"/>
      <point x="396" y="7"/>
      <point x="276" y="7" type="curve" smooth="yes"/>
      <point x="213" y="7"/>
      <point x="153" y="22"/>
      <point x="99" y="53" type="curve"/>
    </contour>
    <contour>
      <point x="279" y="-136" type="move"/>
      <point x="251" y="-164"/>
      <point x="197" y="-217"/>
      <point x="173" y="-241" type="curve"/>
    </contour>
  </outline>
</glyph>
